<svg width="1824" height="1436" xmlns="http://www.w3.org/2000/svg" xmlns:xlink="http://www.w3.org/1999/xlink" overflow="hidden"><defs><clipPath id="clip0"><rect x="1281" y="563" width="1824" height="1436"/></clipPath><clipPath id="clip1"><rect x="1875" y="913" width="650" height="649"/></clipPath><clipPath id="clip2"><rect x="1875" y="913" width="650" height="649"/></clipPath><clipPath id="clip3"><rect x="1875" y="913" width="650" height="649"/></clipPath></defs><g clip-path="url(#clip0)" transform="translate(-1281 -563)"><g clip-path="url(#clip1)"><g clip-path="url(#clip2)"><g clip-path="url(#clip3)"><path d="M363.034 324.5C363.034 346.902 344.874 365.062 322.472 365.062 300.07 365.062 281.909 346.902 281.909 324.5 281.909 302.098 300.07 283.938 322.472 283.938 344.874 283.938 363.034 302.098 363.034 324.5Z" transform="matrix(1.00154 0 0 1 1875 913)"/><path d="M560.439 189.292C548.946 169.686 523.256 160.222 488.102 160.222 465.793 160.222 440.103 164.278 411.709 171.715 392.104 100.73 359.654 54.0833 322.472 54.0833 285.966 54.0833 252.84 100.054 233.91 170.363 206.869 163.602 182.531 159.546 160.898 159.546 125.744 159.546 100.054 169.01 88.5615 188.616 69.6323 221.066 94.6458 273.121 146.701 325.852 96.674 377.231 73.6885 427.258 91.9417 459.032 103.434 478.638 129.124 488.102 164.278 488.102 184.559 488.102 208.221 484.722 233.91 478.638 253.516 548.946 285.966 594.917 322.472 594.917 358.978 594.917 392.104 548.946 411.033 478.638 438.075 485.398 462.413 489.454 484.046 489.454 519.2 489.454 544.89 479.99 556.382 460.384 574.635 428.61 551.65 378.583 501.623 327.204 555.03 273.797 579.368 221.742 560.439 189.292ZM488.102 187.264C513.116 187.264 531.369 193.348 536.777 202.812 546.918 220.39 528.665 261.628 482.694 307.599 466.469 292.726 448.216 277.853 427.934 263.656 425.906 240.671 422.526 218.361 417.794 197.404 443.483 190.644 467.821 187.264 488.102 187.264ZM367.091 394.808C352.894 402.921 338.697 410.357 324.5 417.118 310.303 410.357 296.106 402.921 281.909 394.808 268.389 386.696 254.868 378.583 242.699 370.471 241.347 355.598 241.347 340.725 241.347 324.5 241.347 309.627 242.023 295.43 242.699 281.233 256.22 271.769 270.417 262.98 285.966 254.192 298.81 246.755 311.655 239.995 324.5 233.91 337.345 239.995 350.19 246.755 363.034 254.192 376.555 262.304 390.076 270.417 402.245 278.529 403.597 293.402 403.597 308.275 403.597 324.5 403.597 341.401 402.921 357.626 401.569 373.175 390.752 380.611 379.259 387.372 367.091 394.808ZM398.189 407.653C396.16 420.498 394.132 433.343 392.104 444.835 380.611 440.779 368.443 436.723 356.274 431.315 364.386 427.258 372.499 422.526 380.611 417.794 386.696 414.414 392.78 411.033 398.189 407.653ZM292.726 431.315C279.205 436.723 266.36 441.455 253.516 445.511 250.811 432.667 248.783 419.146 246.755 404.949 254.192 409.681 260.952 413.737 269.065 418.47 276.501 422.526 284.614 427.258 292.726 431.315ZM214.981 350.19C204.165 342.077 194.7 333.965 185.911 325.852 194.7 317.74 204.841 309.627 214.981 301.515 214.981 308.951 214.305 316.387 214.305 324.5 214.305 333.289 214.305 342.077 214.981 350.19ZM246.079 246.755C248.107 231.882 250.135 217.685 252.84 204.165 265.684 208.221 279.205 213.629 292.726 219.038 285.966 222.418 278.529 226.474 271.769 230.53 263.656 235.939 254.868 241.347 246.079 246.755ZM355.598 219.038C367.767 213.629 379.935 209.573 392.104 205.517 394.808 217.685 396.836 230.53 398.865 244.051 391.428 239.319 384.668 235.262 376.555 230.53 369.795 227.15 363.034 223.094 355.598 219.038ZM429.962 298.81C442.131 308.275 452.948 317.064 463.089 326.528 452.948 335.317 442.131 344.781 429.962 353.57 430.639 344.105 430.639 334.641 430.639 325.176 430.639 315.711 430.639 306.923 429.962 298.81ZM322.472 81.125C342.753 81.125 369.119 116.955 386.02 179.151 366.415 185.911 345.457 194.024 324.5 203.489 302.191 193.348 280.557 184.559 259.6 177.799 276.501 116.279 302.191 81.125 322.472 81.125ZM111.547 202.812C117.631 192.672 135.208 187.264 160.222 187.264 179.827 187.264 202.136 190.644 226.474 196.728 221.742 218.361 218.361 242.023 216.333 266.36 197.404 279.881 180.503 293.402 165.63 307.599 120.335 261.628 101.406 220.39 111.547 202.812ZM164.278 461.736C139.265 461.736 121.011 455.652 115.603 446.188 105.463 428.61 123.04 389.4 166.306 344.781 181.855 358.302 198.756 371.823 217.009 385.344 219.038 409.005 222.418 431.991 227.15 452.948 204.841 459.032 183.207 461.736 164.278 461.736ZM322.472 567.875C302.191 567.875 276.501 532.721 259.6 471.877 280.557 465.117 302.191 457.004 324.5 446.864 345.457 456.328 365.739 464.441 385.344 470.525 368.443 532.721 342.753 567.875 322.472 567.875ZM533.397 446.188C527.312 456.328 509.735 461.736 484.722 461.736 465.117 461.736 442.131 458.356 418.47 452.272 422.526 431.991 425.906 411.033 427.934 388.048 448.216 373.851 466.469 359.654 482.694 344.781 525.96 389.4 543.537 428.61 533.397 446.188Z" transform="matrix(1.00154 0 0 1 1875 913)"/></g></g></g><text font-family="Viner Hand ITC,Viner Hand ITC_MSFontService,sans-serif" font-weight="400" font-size="303" transform="matrix(1 0 0 1 1864.35 879)">Deep<tspan fill="#70AD47" font-weight="700" font-size="303" x="-401.042" y="800">v</tspan><tspan font-weight="700" font-size="303" x="-211.406" y="800">iberation</tspan></text></g></svg>