<?xml version="1.0" encoding="utf-8" standalone="no"?>
<!DOCTYPE svg PUBLIC "-//W3C//DTD SVG 1.1//EN"
  "http://www.w3.org/Graphics/SVG/1.1/DTD/svg11.dtd">
<svg xmlns:xlink="http://www.w3.org/1999/xlink" width="720pt" height="432pt" viewBox="0 0 720 432" xmlns="http://www.w3.org/2000/svg" version="1.1">
 <metadata>
  <rdf:RDF xmlns:dc="http://purl.org/dc/elements/1.1/" xmlns:cc="http://creativecommons.org/ns#" xmlns:rdf="http://www.w3.org/1999/02/22-rdf-syntax-ns#">
   <cc:Work>
    <dc:type rdf:resource="http://purl.org/dc/dcmitype/StillImage"/>
    <dc:date>2026-01-10T10:47:36.140878</dc:date>
    <dc:format>image/svg+xml</dc:format>
    <dc:creator>
     <cc:Agent>
      <dc:title>Matplotlib v3.5.1, https://matplotlib.org/</dc:title>
     </cc:Agent>
    </dc:creator>
   </cc:Work>
  </rdf:RDF>
 </metadata>
 <defs>
  <style type="text/css">*{stroke-linejoin: round; stroke-linecap: butt}</style>
 </defs>
 <g id="figure_1">
  <g id="patch_1">
   <path d="M 0 432 
L 720 432 
L 720 0 
L 0 0 
z
" style="fill: #ffffff"/>
  </g>
  <g id="axes_1">
   <g id="patch_2">
    <path d="M 53.75 387.16 
L 702.167108 387.16 
L 702.167108 41.856 
L 53.75 41.856 
z
" style="fill: #ffffff"/>
   </g>
   <g id="patch_3">
    <path d="M 83.223505 387.16 
L 95.012907 387.16 
L 95.012907 385.25356 
L 83.223505 385.25356 
z
" clip-path="url(#p901f4448af)" style="fill: #2e86ab; opacity: 0.7; stroke: #000000; stroke-width: 0.5; stroke-linejoin: miter"/>
   </g>
   <g id="patch_4">
    <path d="M 95.012907 387.16 
L 106.802309 387.16 
L 106.802309 384.77695 
L 95.012907 384.77695 
z
" clip-path="url(#p901f4448af)" style="fill: #2e86ab; opacity: 0.7; stroke: #000000; stroke-width: 0.5; stroke-linejoin: miter"/>
   </g>
   <g id="patch_5">
    <path d="M 106.802309 387.16 
L 118.591711 387.16 
L 118.591711 371.908478 
L 106.802309 371.908478 
z
" clip-path="url(#p901f4448af)" style="fill: #2e86ab; opacity: 0.7; stroke: #000000; stroke-width: 0.5; stroke-linejoin: miter"/>
   </g>
   <g id="patch_6">
    <path d="M 118.591711 387.16 
L 130.381113 387.16 
L 130.381113 355.227125 
L 118.591711 355.227125 
z
" clip-path="url(#p901f4448af)" style="fill: #2e86ab; opacity: 0.7; stroke: #000000; stroke-width: 0.5; stroke-linejoin: miter"/>
   </g>
   <g id="patch_7">
    <path d="M 130.381113 387.16 
L 142.170515 387.16 
L 142.170515 334.732892 
L 130.381113 334.732892 
z
" clip-path="url(#p901f4448af)" style="fill: #2e86ab; opacity: 0.7; stroke: #000000; stroke-width: 0.5; stroke-linejoin: miter"/>
   </g>
   <g id="patch_8">
    <path d="M 142.170515 387.16 
L 153.959917 387.16 
L 153.959917 283.259003 
L 142.170515 283.259003 
z
" clip-path="url(#p901f4448af)" style="fill: #2e86ab; opacity: 0.7; stroke: #000000; stroke-width: 0.5; stroke-linejoin: miter"/>
   </g>
   <g id="patch_9">
    <path d="M 153.959917 387.16 
L 165.749319 387.16 
L 165.749319 208.907832 
L 153.959917 208.907832 
z
" clip-path="url(#p901f4448af)" style="fill: #2e86ab; opacity: 0.7; stroke: #000000; stroke-width: 0.5; stroke-linejoin: miter"/>
   </g>
   <g id="patch_10">
    <path d="M 165.749319 387.16 
L 177.538721 387.16 
L 177.538721 143.612251 
L 165.749319 143.612251 
z
" clip-path="url(#p901f4448af)" style="fill: #2e86ab; opacity: 0.7; stroke: #000000; stroke-width: 0.5; stroke-linejoin: miter"/>
   </g>
   <g id="patch_11">
    <path d="M 177.538721 387.16 
L 189.328122 387.16 
L 189.328122 85.465822 
L 177.538721 85.465822 
z
" clip-path="url(#p901f4448af)" style="fill: #2e86ab; opacity: 0.7; stroke: #000000; stroke-width: 0.5; stroke-linejoin: miter"/>
   </g>
   <g id="patch_12">
    <path d="M 189.328122 387.16 
L 201.117524 387.16 
L 201.117524 58.299048 
L 189.328122 58.299048 
z
" clip-path="url(#p901f4448af)" style="fill: #2e86ab; opacity: 0.7; stroke: #000000; stroke-width: 0.5; stroke-linejoin: miter"/>
   </g>
   <g id="patch_13">
    <path d="M 201.117524 387.16 
L 212.906926 387.16 
L 212.906926 85.942432 
L 201.117524 85.942432 
z
" clip-path="url(#p901f4448af)" style="fill: #2e86ab; opacity: 0.7; stroke: #000000; stroke-width: 0.5; stroke-linejoin: miter"/>
   </g>
   <g id="patch_14">
    <path d="M 212.906926 387.16 
L 224.696328 387.16 
L 224.696328 167.919365 
L 212.906926 167.919365 
z
" clip-path="url(#p901f4448af)" style="fill: #2e86ab; opacity: 0.7; stroke: #000000; stroke-width: 0.5; stroke-linejoin: miter"/>
   </g>
   <g id="patch_15">
    <path d="M 224.696328 387.16 
L 236.48573 387.16 
L 236.48573 230.831895 
L 224.696328 230.831895 
z
" clip-path="url(#p901f4448af)" style="fill: #2e86ab; opacity: 0.7; stroke: #000000; stroke-width: 0.5; stroke-linejoin: miter"/>
   </g>
   <g id="patch_16">
    <path d="M 236.48573 387.16 
L 248.275132 387.16 
L 248.275132 283.735614 
L 236.48573 283.735614 
z
" clip-path="url(#p901f4448af)" style="fill: #2e86ab; opacity: 0.7; stroke: #000000; stroke-width: 0.5; stroke-linejoin: miter"/>
   </g>
   <g id="patch_17">
    <path d="M 248.275132 387.16 
L 260.064534 387.16 
L 260.064534 338.069162 
L 248.275132 338.069162 
z
" clip-path="url(#p901f4448af)" style="fill: #2e86ab; opacity: 0.7; stroke: #000000; stroke-width: 0.5; stroke-linejoin: miter"/>
   </g>
   <g id="patch_18">
    <path d="M 260.064534 387.16 
L 271.853936 387.16 
L 271.853936 359.040006 
L 260.064534 359.040006 
z
" clip-path="url(#p901f4448af)" style="fill: #2e86ab; opacity: 0.7; stroke: #000000; stroke-width: 0.5; stroke-linejoin: miter"/>
   </g>
   <g id="patch_19">
    <path d="M 271.853936 387.16 
L 283.643338 387.16 
L 283.643338 377.627798 
L 271.853936 377.627798 
z
" clip-path="url(#p901f4448af)" style="fill: #2e86ab; opacity: 0.7; stroke: #000000; stroke-width: 0.5; stroke-linejoin: miter"/>
   </g>
   <g id="patch_20">
    <path d="M 283.643338 387.16 
L 295.43274 387.16 
L 295.43274 384.30034 
L 283.643338 384.30034 
z
" clip-path="url(#p901f4448af)" style="fill: #2e86ab; opacity: 0.7; stroke: #000000; stroke-width: 0.5; stroke-linejoin: miter"/>
   </g>
   <g id="patch_21">
    <path d="M 295.43274 387.16 
L 307.222142 387.16 
L 307.222142 386.68339 
L 295.43274 386.68339 
z
" clip-path="url(#p901f4448af)" style="fill: #2e86ab; opacity: 0.7; stroke: #000000; stroke-width: 0.5; stroke-linejoin: miter"/>
   </g>
   <g id="patch_22">
    <path d="M 307.222142 387.16 
L 319.011544 387.16 
L 319.011544 387.16 
L 307.222142 387.16 
z
" clip-path="url(#p901f4448af)" style="fill: #2e86ab; opacity: 0.7; stroke: #000000; stroke-width: 0.5; stroke-linejoin: miter"/>
   </g>
   <g id="patch_23">
    <path d="M 319.011544 387.16 
L 330.800946 387.16 
L 330.800946 387.16 
L 319.011544 387.16 
z
" clip-path="url(#p901f4448af)" style="fill: #2e86ab; opacity: 0.7; stroke: #000000; stroke-width: 0.5; stroke-linejoin: miter"/>
   </g>
   <g id="patch_24">
    <path d="M 330.800946 387.16 
L 342.590348 387.16 
L 342.590348 387.16 
L 330.800946 387.16 
z
" clip-path="url(#p901f4448af)" style="fill: #2e86ab; opacity: 0.7; stroke: #000000; stroke-width: 0.5; stroke-linejoin: miter"/>
   </g>
   <g id="patch_25">
    <path d="M 342.590348 387.16 
L 354.37975 387.16 
L 354.37975 387.16 
L 342.590348 387.16 
z
" clip-path="url(#p901f4448af)" style="fill: #2e86ab; opacity: 0.7; stroke: #000000; stroke-width: 0.5; stroke-linejoin: miter"/>
   </g>
   <g id="patch_26">
    <path d="M 354.37975 387.16 
L 366.169152 387.16 
L 366.169152 387.16 
L 354.37975 387.16 
z
" clip-path="url(#p901f4448af)" style="fill: #2e86ab; opacity: 0.7; stroke: #000000; stroke-width: 0.5; stroke-linejoin: miter"/>
   </g>
   <g id="patch_27">
    <path d="M 366.169152 387.16 
L 377.958554 387.16 
L 377.958554 387.16 
L 366.169152 387.16 
z
" clip-path="url(#p901f4448af)" style="fill: #2e86ab; opacity: 0.7; stroke: #000000; stroke-width: 0.5; stroke-linejoin: miter"/>
   </g>
   <g id="patch_28">
    <path d="M 377.958554 387.16 
L 389.747956 387.16 
L 389.747956 387.16 
L 377.958554 387.16 
z
" clip-path="url(#p901f4448af)" style="fill: #2e86ab; opacity: 0.7; stroke: #000000; stroke-width: 0.5; stroke-linejoin: miter"/>
   </g>
   <g id="patch_29">
    <path d="M 389.747956 387.16 
L 401.537358 387.16 
L 401.537358 387.16 
L 389.747956 387.16 
z
" clip-path="url(#p901f4448af)" style="fill: #2e86ab; opacity: 0.7; stroke: #000000; stroke-width: 0.5; stroke-linejoin: miter"/>
   </g>
   <g id="patch_30">
    <path d="M 401.537358 387.16 
L 413.32676 387.16 
L 413.32676 387.16 
L 401.537358 387.16 
z
" clip-path="url(#p901f4448af)" style="fill: #2e86ab; opacity: 0.7; stroke: #000000; stroke-width: 0.5; stroke-linejoin: miter"/>
   </g>
   <g id="patch_31">
    <path d="M 413.32676 387.16 
L 425.116162 387.16 
L 425.116162 387.16 
L 413.32676 387.16 
z
" clip-path="url(#p901f4448af)" style="fill: #2e86ab; opacity: 0.7; stroke: #000000; stroke-width: 0.5; stroke-linejoin: miter"/>
   </g>
   <g id="patch_32">
    <path d="M 425.116162 387.16 
L 436.905564 387.16 
L 436.905564 387.16 
L 425.116162 387.16 
z
" clip-path="url(#p901f4448af)" style="fill: #2e86ab; opacity: 0.7; stroke: #000000; stroke-width: 0.5; stroke-linejoin: miter"/>
   </g>
   <g id="patch_33">
    <path d="M 436.905564 387.16 
L 448.694966 387.16 
L 448.694966 387.16 
L 436.905564 387.16 
z
" clip-path="url(#p901f4448af)" style="fill: #2e86ab; opacity: 0.7; stroke: #000000; stroke-width: 0.5; stroke-linejoin: miter"/>
   </g>
   <g id="patch_34">
    <path d="M 448.694966 387.16 
L 460.484367 387.16 
L 460.484367 387.16 
L 448.694966 387.16 
z
" clip-path="url(#p901f4448af)" style="fill: #2e86ab; opacity: 0.7; stroke: #000000; stroke-width: 0.5; stroke-linejoin: miter"/>
   </g>
   <g id="patch_35">
    <path d="M 460.484367 387.16 
L 472.273769 387.16 
L 472.273769 387.16 
L 460.484367 387.16 
z
" clip-path="url(#p901f4448af)" style="fill: #2e86ab; opacity: 0.7; stroke: #000000; stroke-width: 0.5; stroke-linejoin: miter"/>
   </g>
   <g id="patch_36">
    <path d="M 472.273769 387.16 
L 484.063171 387.16 
L 484.063171 387.16 
L 472.273769 387.16 
z
" clip-path="url(#p901f4448af)" style="fill: #2e86ab; opacity: 0.7; stroke: #000000; stroke-width: 0.5; stroke-linejoin: miter"/>
   </g>
   <g id="patch_37">
    <path d="M 484.063171 387.16 
L 495.852573 387.16 
L 495.852573 387.16 
L 484.063171 387.16 
z
" clip-path="url(#p901f4448af)" style="fill: #2e86ab; opacity: 0.7; stroke: #000000; stroke-width: 0.5; stroke-linejoin: miter"/>
   </g>
   <g id="patch_38">
    <path d="M 495.852573 387.16 
L 507.641975 387.16 
L 507.641975 387.16 
L 495.852573 387.16 
z
" clip-path="url(#p901f4448af)" style="fill: #2e86ab; opacity: 0.7; stroke: #000000; stroke-width: 0.5; stroke-linejoin: miter"/>
   </g>
   <g id="patch_39">
    <path d="M 507.641975 387.16 
L 519.431377 387.16 
L 519.431377 387.16 
L 507.641975 387.16 
z
" clip-path="url(#p901f4448af)" style="fill: #2e86ab; opacity: 0.7; stroke: #000000; stroke-width: 0.5; stroke-linejoin: miter"/>
   </g>
   <g id="patch_40">
    <path d="M 519.431377 387.16 
L 531.220779 387.16 
L 531.220779 387.16 
L 519.431377 387.16 
z
" clip-path="url(#p901f4448af)" style="fill: #2e86ab; opacity: 0.7; stroke: #000000; stroke-width: 0.5; stroke-linejoin: miter"/>
   </g>
   <g id="patch_41">
    <path d="M 531.220779 387.16 
L 543.010181 387.16 
L 543.010181 387.16 
L 531.220779 387.16 
z
" clip-path="url(#p901f4448af)" style="fill: #2e86ab; opacity: 0.7; stroke: #000000; stroke-width: 0.5; stroke-linejoin: miter"/>
   </g>
   <g id="patch_42">
    <path d="M 543.010181 387.16 
L 554.799583 387.16 
L 554.799583 387.16 
L 543.010181 387.16 
z
" clip-path="url(#p901f4448af)" style="fill: #2e86ab; opacity: 0.7; stroke: #000000; stroke-width: 0.5; stroke-linejoin: miter"/>
   </g>
   <g id="patch_43">
    <path d="M 554.799583 387.16 
L 566.588985 387.16 
L 566.588985 387.16 
L 554.799583 387.16 
z
" clip-path="url(#p901f4448af)" style="fill: #2e86ab; opacity: 0.7; stroke: #000000; stroke-width: 0.5; stroke-linejoin: miter"/>
   </g>
   <g id="patch_44">
    <path d="M 566.588985 387.16 
L 578.378387 387.16 
L 578.378387 387.16 
L 566.588985 387.16 
z
" clip-path="url(#p901f4448af)" style="fill: #2e86ab; opacity: 0.7; stroke: #000000; stroke-width: 0.5; stroke-linejoin: miter"/>
   </g>
   <g id="patch_45">
    <path d="M 578.378387 387.16 
L 590.167789 387.16 
L 590.167789 387.16 
L 578.378387 387.16 
z
" clip-path="url(#p901f4448af)" style="fill: #2e86ab; opacity: 0.7; stroke: #000000; stroke-width: 0.5; stroke-linejoin: miter"/>
   </g>
   <g id="patch_46">
    <path d="M 590.167789 387.16 
L 601.957191 387.16 
L 601.957191 387.16 
L 590.167789 387.16 
z
" clip-path="url(#p901f4448af)" style="fill: #2e86ab; opacity: 0.7; stroke: #000000; stroke-width: 0.5; stroke-linejoin: miter"/>
   </g>
   <g id="patch_47">
    <path d="M 601.957191 387.16 
L 613.746593 387.16 
L 613.746593 387.16 
L 601.957191 387.16 
z
" clip-path="url(#p901f4448af)" style="fill: #2e86ab; opacity: 0.7; stroke: #000000; stroke-width: 0.5; stroke-linejoin: miter"/>
   </g>
   <g id="patch_48">
    <path d="M 613.746593 387.16 
L 625.535995 387.16 
L 625.535995 387.16 
L 613.746593 387.16 
z
" clip-path="url(#p901f4448af)" style="fill: #2e86ab; opacity: 0.7; stroke: #000000; stroke-width: 0.5; stroke-linejoin: miter"/>
   </g>
   <g id="patch_49">
    <path d="M 625.535995 387.16 
L 637.325397 387.16 
L 637.325397 387.16 
L 625.535995 387.16 
z
" clip-path="url(#p901f4448af)" style="fill: #2e86ab; opacity: 0.7; stroke: #000000; stroke-width: 0.5; stroke-linejoin: miter"/>
   </g>
   <g id="patch_50">
    <path d="M 637.325397 387.16 
L 649.114799 387.16 
L 649.114799 387.16 
L 637.325397 387.16 
z
" clip-path="url(#p901f4448af)" style="fill: #2e86ab; opacity: 0.7; stroke: #000000; stroke-width: 0.5; stroke-linejoin: miter"/>
   </g>
   <g id="patch_51">
    <path d="M 649.114799 387.16 
L 660.904201 387.16 
L 660.904201 387.16 
L 649.114799 387.16 
z
" clip-path="url(#p901f4448af)" style="fill: #2e86ab; opacity: 0.7; stroke: #000000; stroke-width: 0.5; stroke-linejoin: miter"/>
   </g>
   <g id="patch_52">
    <path d="M 660.904201 387.16 
L 672.693603 387.16 
L 672.693603 386.68339 
L 660.904201 386.68339 
z
" clip-path="url(#p901f4448af)" style="fill: #2e86ab; opacity: 0.7; stroke: #000000; stroke-width: 0.5; stroke-linejoin: miter"/>
   </g>
   <g id="patch_53">
    <path d="M 97.521499 387.16 
L 97.521499 41.856 
L 290.709473 41.856 
L 290.709473 387.16 
z
" clip-path="url(#p901f4448af)" style="fill: #ff0000; opacity: 0.2; stroke: #ff0000; stroke-linejoin: miter"/>
   </g>
   <g id="matplotlib.axis_1">
    <g id="xtick_1">
     <g id="line2d_1">
      <path d="M 90.785467 387.16 
L 90.785467 41.856 
" clip-path="url(#p901f4448af)" style="fill: none; stroke-dasharray: 1.85,0.8; stroke-dashoffset: 0; stroke: #b0b0b0; stroke-opacity: 0.3; stroke-width: 0.5"/>
     </g>
     <g id="line2d_2">
      <defs>
       <path id="me46ba6e7f5" d="M 0 0 
L 0 3.5 
" style="stroke: #000000; stroke-width: 0.8"/>
      </defs>
      <g>
       <use xlink:href="#me46ba6e7f5" x="90.785467" y="387.16" style="stroke: #000000; stroke-width: 0.8"/>
      </g>
     </g>
     <g id="text_1">
      <!-- 900 -->
      <g transform="translate(81.241717 401.758438)scale(0.1 -0.1)">
       <defs>
        <path id="DejaVuSans-39" d="M 703 97 
L 703 672 
Q 941 559 1184 500 
Q 1428 441 1663 441 
Q 2288 441 2617 861 
Q 2947 1281 2994 2138 
Q 2813 1869 2534 1725 
Q 2256 1581 1919 1581 
Q 1219 1581 811 2004 
Q 403 2428 403 3163 
Q 403 3881 828 4315 
Q 1253 4750 1959 4750 
Q 2769 4750 3195 4129 
Q 3622 3509 3622 2328 
Q 3622 1225 3098 567 
Q 2575 -91 1691 -91 
Q 1453 -91 1209 -44 
Q 966 3 703 97 
z
M 1959 2075 
Q 2384 2075 2632 2365 
Q 2881 2656 2881 3163 
Q 2881 3666 2632 3958 
Q 2384 4250 1959 4250 
Q 1534 4250 1286 3958 
Q 1038 3666 1038 3163 
Q 1038 2656 1286 2365 
Q 1534 2075 1959 2075 
z
" transform="scale(0.015625)"/>
        <path id="DejaVuSans-30" d="M 2034 4250 
Q 1547 4250 1301 3770 
Q 1056 3291 1056 2328 
Q 1056 1369 1301 889 
Q 1547 409 2034 409 
Q 2525 409 2770 889 
Q 3016 1369 3016 2328 
Q 3016 3291 2770 3770 
Q 2525 4250 2034 4250 
z
M 2034 4750 
Q 2819 4750 3233 4129 
Q 3647 3509 3647 2328 
Q 3647 1150 3233 529 
Q 2819 -91 2034 -91 
Q 1250 -91 836 529 
Q 422 1150 422 2328 
Q 422 3509 836 4129 
Q 1250 4750 2034 4750 
z
" transform="scale(0.015625)"/>
       </defs>
       <use xlink:href="#DejaVuSans-39"/>
       <use xlink:href="#DejaVuSans-30" x="63.623047"/>
       <use xlink:href="#DejaVuSans-30" x="127.246094"/>
      </g>
     </g>
    </g>
    <g id="xtick_2">
     <g id="line2d_3">
      <path d="M 211.757499 387.16 
L 211.757499 41.856 
" clip-path="url(#p901f4448af)" style="fill: none; stroke-dasharray: 1.85,0.8; stroke-dashoffset: 0; stroke: #b0b0b0; stroke-opacity: 0.3; stroke-width: 0.5"/>
     </g>
     <g id="line2d_4">
      <g>
       <use xlink:href="#me46ba6e7f5" x="211.757499" y="387.16" style="stroke: #000000; stroke-width: 0.8"/>
      </g>
     </g>
     <g id="text_2">
      <!-- 1000 -->
      <g transform="translate(199.032499 401.758438)scale(0.1 -0.1)">
       <defs>
        <path id="DejaVuSans-31" d="M 794 531 
L 1825 531 
L 1825 4091 
L 703 3866 
L 703 4441 
L 1819 4666 
L 2450 4666 
L 2450 531 
L 3481 531 
L 3481 0 
L 794 0 
L 794 531 
z
" transform="scale(0.015625)"/>
       </defs>
       <use xlink:href="#DejaVuSans-31"/>
       <use xlink:href="#DejaVuSans-30" x="63.623047"/>
       <use xlink:href="#DejaVuSans-30" x="127.246094"/>
       <use xlink:href="#DejaVuSans-30" x="190.869141"/>
      </g>
     </g>
    </g>
    <g id="xtick_3">
     <g id="line2d_5">
      <path d="M 332.72953 387.16 
L 332.72953 41.856 
" clip-path="url(#p901f4448af)" style="fill: none; stroke-dasharray: 1.85,0.8; stroke-dashoffset: 0; stroke: #b0b0b0; stroke-opacity: 0.3; stroke-width: 0.5"/>
     </g>
     <g id="line2d_6">
      <g>
       <use xlink:href="#me46ba6e7f5" x="332.72953" y="387.16" style="stroke: #000000; stroke-width: 0.8"/>
      </g>
     </g>
     <g id="text_3">
      <!-- 1100 -->
      <g transform="translate(320.00453 401.758438)scale(0.1 -0.1)">
       <use xlink:href="#DejaVuSans-31"/>
       <use xlink:href="#DejaVuSans-31" x="63.623047"/>
       <use xlink:href="#DejaVuSans-30" x="127.246094"/>
       <use xlink:href="#DejaVuSans-30" x="190.869141"/>
      </g>
     </g>
    </g>
    <g id="xtick_4">
     <g id="line2d_7">
      <path d="M 453.701562 387.16 
L 453.701562 41.856 
" clip-path="url(#p901f4448af)" style="fill: none; stroke-dasharray: 1.85,0.8; stroke-dashoffset: 0; stroke: #b0b0b0; stroke-opacity: 0.3; stroke-width: 0.5"/>
     </g>
     <g id="line2d_8">
      <g>
       <use xlink:href="#me46ba6e7f5" x="453.701562" y="387.16" style="stroke: #000000; stroke-width: 0.8"/>
      </g>
     </g>
     <g id="text_4">
      <!-- 1200 -->
      <g transform="translate(440.976562 401.758438)scale(0.1 -0.1)">
       <defs>
        <path id="DejaVuSans-32" d="M 1228 531 
L 3431 531 
L 3431 0 
L 469 0 
L 469 531 
Q 828 903 1448 1529 
Q 2069 2156 2228 2338 
Q 2531 2678 2651 2914 
Q 2772 3150 2772 3378 
Q 2772 3750 2511 3984 
Q 2250 4219 1831 4219 
Q 1534 4219 1204 4116 
Q 875 4013 500 3803 
L 500 4441 
Q 881 4594 1212 4672 
Q 1544 4750 1819 4750 
Q 2544 4750 2975 4387 
Q 3406 4025 3406 3419 
Q 3406 3131 3298 2873 
Q 3191 2616 2906 2266 
Q 2828 2175 2409 1742 
Q 1991 1309 1228 531 
z
" transform="scale(0.015625)"/>
       </defs>
       <use xlink:href="#DejaVuSans-31"/>
       <use xlink:href="#DejaVuSans-32" x="63.623047"/>
       <use xlink:href="#DejaVuSans-30" x="127.246094"/>
       <use xlink:href="#DejaVuSans-30" x="190.869141"/>
      </g>
     </g>
    </g>
    <g id="xtick_5">
     <g id="line2d_9">
      <path d="M 574.673594 387.16 
L 574.673594 41.856 
" clip-path="url(#p901f4448af)" style="fill: none; stroke-dasharray: 1.85,0.8; stroke-dashoffset: 0; stroke: #b0b0b0; stroke-opacity: 0.3; stroke-width: 0.5"/>
     </g>
     <g id="line2d_10">
      <g>
       <use xlink:href="#me46ba6e7f5" x="574.673594" y="387.16" style="stroke: #000000; stroke-width: 0.8"/>
      </g>
     </g>
     <g id="text_5">
      <!-- 1300 -->
      <g transform="translate(561.948594 401.758438)scale(0.1 -0.1)">
       <defs>
        <path id="DejaVuSans-33" d="M 2597 2516 
Q 3050 2419 3304 2112 
Q 3559 1806 3559 1356 
Q 3559 666 3084 287 
Q 2609 -91 1734 -91 
Q 1441 -91 1130 -33 
Q 819 25 488 141 
L 488 750 
Q 750 597 1062 519 
Q 1375 441 1716 441 
Q 2309 441 2620 675 
Q 2931 909 2931 1356 
Q 2931 1769 2642 2001 
Q 2353 2234 1838 2234 
L 1294 2234 
L 1294 2753 
L 1863 2753 
Q 2328 2753 2575 2939 
Q 2822 3125 2822 3475 
Q 2822 3834 2567 4026 
Q 2313 4219 1838 4219 
Q 1578 4219 1281 4162 
Q 984 4106 628 3988 
L 628 4550 
Q 988 4650 1302 4700 
Q 1616 4750 1894 4750 
Q 2613 4750 3031 4423 
Q 3450 4097 3450 3541 
Q 3450 3153 3228 2886 
Q 3006 2619 2597 2516 
z
" transform="scale(0.015625)"/>
       </defs>
       <use xlink:href="#DejaVuSans-31"/>
       <use xlink:href="#DejaVuSans-33" x="63.623047"/>
       <use xlink:href="#DejaVuSans-30" x="127.246094"/>
       <use xlink:href="#DejaVuSans-30" x="190.869141"/>
      </g>
     </g>
    </g>
    <g id="xtick_6">
     <g id="line2d_11">
      <path d="M 695.645626 387.16 
L 695.645626 41.856 
" clip-path="url(#p901f4448af)" style="fill: none; stroke-dasharray: 1.85,0.8; stroke-dashoffset: 0; stroke: #b0b0b0; stroke-opacity: 0.3; stroke-width: 0.5"/>
     </g>
     <g id="line2d_12">
      <g>
       <use xlink:href="#me46ba6e7f5" x="695.645626" y="387.16" style="stroke: #000000; stroke-width: 0.8"/>
      </g>
     </g>
     <g id="text_6">
      <!-- 1400 -->
      <g transform="translate(682.920626 401.758438)scale(0.1 -0.1)">
       <defs>
        <path id="DejaVuSans-34" d="M 2419 4116 
L 825 1625 
L 2419 1625 
L 2419 4116 
z
M 2253 4666 
L 3047 4666 
L 3047 1625 
L 3713 1625 
L 3713 1100 
L 3047 1100 
L 3047 0 
L 2419 0 
L 2419 1100 
L 313 1100 
L 313 1709 
L 2253 4666 
z
" transform="scale(0.015625)"/>
       </defs>
       <use xlink:href="#DejaVuSans-31"/>
       <use xlink:href="#DejaVuSans-34" x="63.623047"/>
       <use xlink:href="#DejaVuSans-30" x="127.246094"/>
       <use xlink:href="#DejaVuSans-30" x="190.869141"/>
      </g>
     </g>
    </g>
    <g id="text_7">
     <!-- Baseline Level (ADC) -->
     <g transform="translate(315.269804 416.95625)scale(0.12 -0.12)">
      <defs>
       <path id="DejaVuSans-42" d="M 1259 2228 
L 1259 519 
L 2272 519 
Q 2781 519 3026 730 
Q 3272 941 3272 1375 
Q 3272 1813 3026 2020 
Q 2781 2228 2272 2228 
L 1259 2228 
z
M 1259 4147 
L 1259 2741 
L 2194 2741 
Q 2656 2741 2882 2914 
Q 3109 3088 3109 3444 
Q 3109 3797 2882 3972 
Q 2656 4147 2194 4147 
L 1259 4147 
z
M 628 4666 
L 2241 4666 
Q 2963 4666 3353 4366 
Q 3744 4066 3744 3513 
Q 3744 3084 3544 2831 
Q 3344 2578 2956 2516 
Q 3422 2416 3680 2098 
Q 3938 1781 3938 1306 
Q 3938 681 3513 340 
Q 3088 0 2303 0 
L 628 0 
L 628 4666 
z
" transform="scale(0.015625)"/>
       <path id="DejaVuSans-61" d="M 2194 1759 
Q 1497 1759 1228 1600 
Q 959 1441 959 1056 
Q 959 750 1161 570 
Q 1363 391 1709 391 
Q 2188 391 2477 730 
Q 2766 1069 2766 1631 
L 2766 1759 
L 2194 1759 
z
M 3341 1997 
L 3341 0 
L 2766 0 
L 2766 531 
Q 2569 213 2275 61 
Q 1981 -91 1556 -91 
Q 1019 -91 701 211 
Q 384 513 384 1019 
Q 384 1609 779 1909 
Q 1175 2209 1959 2209 
L 2766 2209 
L 2766 2266 
Q 2766 2663 2505 2880 
Q 2244 3097 1772 3097 
Q 1472 3097 1187 3025 
Q 903 2953 641 2809 
L 641 3341 
Q 956 3463 1253 3523 
Q 1550 3584 1831 3584 
Q 2591 3584 2966 3190 
Q 3341 2797 3341 1997 
z
" transform="scale(0.015625)"/>
       <path id="DejaVuSans-73" d="M 2834 3397 
L 2834 2853 
Q 2591 2978 2328 3040 
Q 2066 3103 1784 3103 
Q 1356 3103 1142 2972 
Q 928 2841 928 2578 
Q 928 2378 1081 2264 
Q 1234 2150 1697 2047 
L 1894 2003 
Q 2506 1872 2764 1633 
Q 3022 1394 3022 966 
Q 3022 478 2636 193 
Q 2250 -91 1575 -91 
Q 1294 -91 989 -36 
Q 684 19 347 128 
L 347 722 
Q 666 556 975 473 
Q 1284 391 1588 391 
Q 1994 391 2212 530 
Q 2431 669 2431 922 
Q 2431 1156 2273 1281 
Q 2116 1406 1581 1522 
L 1381 1569 
Q 847 1681 609 1914 
Q 372 2147 372 2553 
Q 372 3047 722 3315 
Q 1072 3584 1716 3584 
Q 2034 3584 2315 3537 
Q 2597 3491 2834 3397 
z
" transform="scale(0.015625)"/>
       <path id="DejaVuSans-65" d="M 3597 1894 
L 3597 1613 
L 953 1613 
Q 991 1019 1311 708 
Q 1631 397 2203 397 
Q 2534 397 2845 478 
Q 3156 559 3463 722 
L 3463 178 
Q 3153 47 2828 -22 
Q 2503 -91 2169 -91 
Q 1331 -91 842 396 
Q 353 884 353 1716 
Q 353 2575 817 3079 
Q 1281 3584 2069 3584 
Q 2775 3584 3186 3129 
Q 3597 2675 3597 1894 
z
M 3022 2063 
Q 3016 2534 2758 2815 
Q 2500 3097 2075 3097 
Q 1594 3097 1305 2825 
Q 1016 2553 972 2059 
L 3022 2063 
z
" transform="scale(0.015625)"/>
       <path id="DejaVuSans-6c" d="M 603 4863 
L 1178 4863 
L 1178 0 
L 603 0 
L 603 4863 
z
" transform="scale(0.015625)"/>
       <path id="DejaVuSans-69" d="M 603 3500 
L 1178 3500 
L 1178 0 
L 603 0 
L 603 3500 
z
M 603 4863 
L 1178 4863 
L 1178 4134 
L 603 4134 
L 603 4863 
z
" transform="scale(0.015625)"/>
       <path id="DejaVuSans-6e" d="M 3513 2113 
L 3513 0 
L 2938 0 
L 2938 2094 
Q 2938 2591 2744 2837 
Q 2550 3084 2163 3084 
Q 1697 3084 1428 2787 
Q 1159 2491 1159 1978 
L 1159 0 
L 581 0 
L 581 3500 
L 1159 3500 
L 1159 2956 
Q 1366 3272 1645 3428 
Q 1925 3584 2291 3584 
Q 2894 3584 3203 3211 
Q 3513 2838 3513 2113 
z
" transform="scale(0.015625)"/>
       <path id="DejaVuSans-20" transform="scale(0.015625)"/>
       <path id="DejaVuSans-4c" d="M 628 4666 
L 1259 4666 
L 1259 531 
L 3531 531 
L 3531 0 
L 628 0 
L 628 4666 
z
" transform="scale(0.015625)"/>
       <path id="DejaVuSans-76" d="M 191 3500 
L 800 3500 
L 1894 563 
L 2988 3500 
L 3597 3500 
L 2284 0 
L 1503 0 
L 191 3500 
z
" transform="scale(0.015625)"/>
       <path id="DejaVuSans-28" d="M 1984 4856 
Q 1566 4138 1362 3434 
Q 1159 2731 1159 2009 
Q 1159 1288 1364 580 
Q 1569 -128 1984 -844 
L 1484 -844 
Q 1016 -109 783 600 
Q 550 1309 550 2009 
Q 550 2706 781 3412 
Q 1013 4119 1484 4856 
L 1984 4856 
z
" transform="scale(0.015625)"/>
       <path id="DejaVuSans-41" d="M 2188 4044 
L 1331 1722 
L 3047 1722 
L 2188 4044 
z
M 1831 4666 
L 2547 4666 
L 4325 0 
L 3669 0 
L 3244 1197 
L 1141 1197 
L 716 0 
L 50 0 
L 1831 4666 
z
" transform="scale(0.015625)"/>
       <path id="DejaVuSans-44" d="M 1259 4147 
L 1259 519 
L 2022 519 
Q 2988 519 3436 956 
Q 3884 1394 3884 2338 
Q 3884 3275 3436 3711 
Q 2988 4147 2022 4147 
L 1259 4147 
z
M 628 4666 
L 1925 4666 
Q 3281 4666 3915 4102 
Q 4550 3538 4550 2338 
Q 4550 1131 3912 565 
Q 3275 0 1925 0 
L 628 0 
L 628 4666 
z
" transform="scale(0.015625)"/>
       <path id="DejaVuSans-43" d="M 4122 4306 
L 4122 3641 
Q 3803 3938 3442 4084 
Q 3081 4231 2675 4231 
Q 1875 4231 1450 3742 
Q 1025 3253 1025 2328 
Q 1025 1406 1450 917 
Q 1875 428 2675 428 
Q 3081 428 3442 575 
Q 3803 722 4122 1019 
L 4122 359 
Q 3791 134 3420 21 
Q 3050 -91 2638 -91 
Q 1578 -91 968 557 
Q 359 1206 359 2328 
Q 359 3453 968 4101 
Q 1578 4750 2638 4750 
Q 3056 4750 3426 4639 
Q 3797 4528 4122 4306 
z
" transform="scale(0.015625)"/>
       <path id="DejaVuSans-29" d="M 513 4856 
L 1013 4856 
Q 1481 4119 1714 3412 
Q 1947 2706 1947 2009 
Q 1947 1309 1714 600 
Q 1481 -109 1013 -844 
L 513 -844 
Q 928 -128 1133 580 
Q 1338 1288 1338 2009 
Q 1338 2731 1133 3434 
Q 928 4138 513 4856 
z
" transform="scale(0.015625)"/>
      </defs>
      <use xlink:href="#DejaVuSans-42"/>
      <use xlink:href="#DejaVuSans-61" x="68.603516"/>
      <use xlink:href="#DejaVuSans-73" x="129.882812"/>
      <use xlink:href="#DejaVuSans-65" x="181.982422"/>
      <use xlink:href="#DejaVuSans-6c" x="243.505859"/>
      <use xlink:href="#DejaVuSans-69" x="271.289062"/>
      <use xlink:href="#DejaVuSans-6e" x="299.072266"/>
      <use xlink:href="#DejaVuSans-65" x="362.451172"/>
      <use xlink:href="#DejaVuSans-20" x="423.974609"/>
      <use xlink:href="#DejaVuSans-4c" x="455.761719"/>
      <use xlink:href="#DejaVuSans-65" x="509.724609"/>
      <use xlink:href="#DejaVuSans-76" x="571.248047"/>
      <use xlink:href="#DejaVuSans-65" x="630.427734"/>
      <use xlink:href="#DejaVuSans-6c" x="691.951172"/>
      <use xlink:href="#DejaVuSans-20" x="719.734375"/>
      <use xlink:href="#DejaVuSans-28" x="751.521484"/>
      <use xlink:href="#DejaVuSans-41" x="790.535156"/>
      <use xlink:href="#DejaVuSans-44" x="858.943359"/>
      <use xlink:href="#DejaVuSans-43" x="935.945312"/>
      <use xlink:href="#DejaVuSans-29" x="1005.769531"/>
     </g>
    </g>
   </g>
   <g id="matplotlib.axis_2">
    <g id="ytick_1">
     <g id="line2d_13">
      <path d="M 53.75 387.16 
L 702.167108 387.16 
" clip-path="url(#p901f4448af)" style="fill: none; stroke-dasharray: 1.85,0.8; stroke-dashoffset: 0; stroke: #b0b0b0; stroke-opacity: 0.3; stroke-width: 0.5"/>
     </g>
     <g id="line2d_14">
      <defs>
       <path id="m3aaca4428f" d="M 0 0 
L -3.5 0 
" style="stroke: #000000; stroke-width: 0.8"/>
      </defs>
      <g>
       <use xlink:href="#m3aaca4428f" x="53.75" y="387.16" style="stroke: #000000; stroke-width: 0.8"/>
      </g>
     </g>
     <g id="text_8">
      <!-- 0 -->
      <g transform="translate(40.3875 390.959219)scale(0.1 -0.1)">
       <use xlink:href="#DejaVuSans-30"/>
      </g>
     </g>
    </g>
    <g id="ytick_2">
     <g id="line2d_15">
      <path d="M 53.75 339.498992 
L 702.167108 339.498992 
" clip-path="url(#p901f4448af)" style="fill: none; stroke-dasharray: 1.85,0.8; stroke-dashoffset: 0; stroke: #b0b0b0; stroke-opacity: 0.3; stroke-width: 0.5"/>
     </g>
     <g id="line2d_16">
      <g>
       <use xlink:href="#m3aaca4428f" x="53.75" y="339.498992" style="stroke: #000000; stroke-width: 0.8"/>
      </g>
     </g>
     <g id="text_9">
      <!-- 100 -->
      <g transform="translate(27.6625 343.298211)scale(0.1 -0.1)">
       <use xlink:href="#DejaVuSans-31"/>
       <use xlink:href="#DejaVuSans-30" x="63.623047"/>
       <use xlink:href="#DejaVuSans-30" x="127.246094"/>
      </g>
     </g>
    </g>
    <g id="ytick_3">
     <g id="line2d_17">
      <path d="M 53.75 291.837985 
L 702.167108 291.837985 
" clip-path="url(#p901f4448af)" style="fill: none; stroke-dasharray: 1.85,0.8; stroke-dashoffset: 0; stroke: #b0b0b0; stroke-opacity: 0.3; stroke-width: 0.5"/>
     </g>
     <g id="line2d_18">
      <g>
       <use xlink:href="#m3aaca4428f" x="53.75" y="291.837985" style="stroke: #000000; stroke-width: 0.8"/>
      </g>
     </g>
     <g id="text_10">
      <!-- 200 -->
      <g transform="translate(27.6625 295.637204)scale(0.1 -0.1)">
       <use xlink:href="#DejaVuSans-32"/>
       <use xlink:href="#DejaVuSans-30" x="63.623047"/>
       <use xlink:href="#DejaVuSans-30" x="127.246094"/>
      </g>
     </g>
    </g>
    <g id="ytick_4">
     <g id="line2d_19">
      <path d="M 53.75 244.176977 
L 702.167108 244.176977 
" clip-path="url(#p901f4448af)" style="fill: none; stroke-dasharray: 1.85,0.8; stroke-dashoffset: 0; stroke: #b0b0b0; stroke-opacity: 0.3; stroke-width: 0.5"/>
     </g>
     <g id="line2d_20">
      <g>
       <use xlink:href="#m3aaca4428f" x="53.75" y="244.176977" style="stroke: #000000; stroke-width: 0.8"/>
      </g>
     </g>
     <g id="text_11">
      <!-- 300 -->
      <g transform="translate(27.6625 247.976196)scale(0.1 -0.1)">
       <use xlink:href="#DejaVuSans-33"/>
       <use xlink:href="#DejaVuSans-30" x="63.623047"/>
       <use xlink:href="#DejaVuSans-30" x="127.246094"/>
      </g>
     </g>
    </g>
    <g id="ytick_5">
     <g id="line2d_21">
      <path d="M 53.75 196.51597 
L 702.167108 196.51597 
" clip-path="url(#p901f4448af)" style="fill: none; stroke-dasharray: 1.85,0.8; stroke-dashoffset: 0; stroke: #b0b0b0; stroke-opacity: 0.3; stroke-width: 0.5"/>
     </g>
     <g id="line2d_22">
      <g>
       <use xlink:href="#m3aaca4428f" x="53.75" y="196.51597" style="stroke: #000000; stroke-width: 0.8"/>
      </g>
     </g>
     <g id="text_12">
      <!-- 400 -->
      <g transform="translate(27.6625 200.315188)scale(0.1 -0.1)">
       <use xlink:href="#DejaVuSans-34"/>
       <use xlink:href="#DejaVuSans-30" x="63.623047"/>
       <use xlink:href="#DejaVuSans-30" x="127.246094"/>
      </g>
     </g>
    </g>
    <g id="ytick_6">
     <g id="line2d_23">
      <path d="M 53.75 148.854962 
L 702.167108 148.854962 
" clip-path="url(#p901f4448af)" style="fill: none; stroke-dasharray: 1.85,0.8; stroke-dashoffset: 0; stroke: #b0b0b0; stroke-opacity: 0.3; stroke-width: 0.5"/>
     </g>
     <g id="line2d_24">
      <g>
       <use xlink:href="#m3aaca4428f" x="53.75" y="148.854962" style="stroke: #000000; stroke-width: 0.8"/>
      </g>
     </g>
     <g id="text_13">
      <!-- 500 -->
      <g transform="translate(27.6625 152.654181)scale(0.1 -0.1)">
       <defs>
        <path id="DejaVuSans-35" d="M 691 4666 
L 3169 4666 
L 3169 4134 
L 1269 4134 
L 1269 2991 
Q 1406 3038 1543 3061 
Q 1681 3084 1819 3084 
Q 2600 3084 3056 2656 
Q 3513 2228 3513 1497 
Q 3513 744 3044 326 
Q 2575 -91 1722 -91 
Q 1428 -91 1123 -41 
Q 819 9 494 109 
L 494 744 
Q 775 591 1075 516 
Q 1375 441 1709 441 
Q 2250 441 2565 725 
Q 2881 1009 2881 1497 
Q 2881 1984 2565 2268 
Q 2250 2553 1709 2553 
Q 1456 2553 1204 2497 
Q 953 2441 691 2322 
L 691 4666 
z
" transform="scale(0.015625)"/>
       </defs>
       <use xlink:href="#DejaVuSans-35"/>
       <use xlink:href="#DejaVuSans-30" x="63.623047"/>
       <use xlink:href="#DejaVuSans-30" x="127.246094"/>
      </g>
     </g>
    </g>
    <g id="ytick_7">
     <g id="line2d_25">
      <path d="M 53.75 101.193954 
L 702.167108 101.193954 
" clip-path="url(#p901f4448af)" style="fill: none; stroke-dasharray: 1.85,0.8; stroke-dashoffset: 0; stroke: #b0b0b0; stroke-opacity: 0.3; stroke-width: 0.5"/>
     </g>
     <g id="line2d_26">
      <g>
       <use xlink:href="#m3aaca4428f" x="53.75" y="101.193954" style="stroke: #000000; stroke-width: 0.8"/>
      </g>
     </g>
     <g id="text_14">
      <!-- 600 -->
      <g transform="translate(27.6625 104.993173)scale(0.1 -0.1)">
       <defs>
        <path id="DejaVuSans-36" d="M 2113 2584 
Q 1688 2584 1439 2293 
Q 1191 2003 1191 1497 
Q 1191 994 1439 701 
Q 1688 409 2113 409 
Q 2538 409 2786 701 
Q 3034 994 3034 1497 
Q 3034 2003 2786 2293 
Q 2538 2584 2113 2584 
z
M 3366 4563 
L 3366 3988 
Q 3128 4100 2886 4159 
Q 2644 4219 2406 4219 
Q 1781 4219 1451 3797 
Q 1122 3375 1075 2522 
Q 1259 2794 1537 2939 
Q 1816 3084 2150 3084 
Q 2853 3084 3261 2657 
Q 3669 2231 3669 1497 
Q 3669 778 3244 343 
Q 2819 -91 2113 -91 
Q 1303 -91 875 529 
Q 447 1150 447 2328 
Q 447 3434 972 4092 
Q 1497 4750 2381 4750 
Q 2619 4750 2861 4703 
Q 3103 4656 3366 4563 
z
" transform="scale(0.015625)"/>
       </defs>
       <use xlink:href="#DejaVuSans-36"/>
       <use xlink:href="#DejaVuSans-30" x="63.623047"/>
       <use xlink:href="#DejaVuSans-30" x="127.246094"/>
      </g>
     </g>
    </g>
    <g id="ytick_8">
     <g id="line2d_27">
      <path d="M 53.75 53.532947 
L 702.167108 53.532947 
" clip-path="url(#p901f4448af)" style="fill: none; stroke-dasharray: 1.85,0.8; stroke-dashoffset: 0; stroke: #b0b0b0; stroke-opacity: 0.3; stroke-width: 0.5"/>
     </g>
     <g id="line2d_28">
      <g>
       <use xlink:href="#m3aaca4428f" x="53.75" y="53.532947" style="stroke: #000000; stroke-width: 0.8"/>
      </g>
     </g>
     <g id="text_15">
      <!-- 700 -->
      <g transform="translate(27.6625 57.332166)scale(0.1 -0.1)">
       <defs>
        <path id="DejaVuSans-37" d="M 525 4666 
L 3525 4666 
L 3525 4397 
L 1831 0 
L 1172 0 
L 2766 4134 
L 525 4134 
L 525 4666 
z
" transform="scale(0.015625)"/>
       </defs>
       <use xlink:href="#DejaVuSans-37"/>
       <use xlink:href="#DejaVuSans-30" x="63.623047"/>
       <use xlink:href="#DejaVuSans-30" x="127.246094"/>
      </g>
     </g>
    </g>
    <g id="text_16">
     <!-- Count -->
     <g transform="translate(21.166875 232.326125)rotate(-90)scale(0.12 -0.12)">
      <defs>
       <path id="DejaVuSans-6f" d="M 1959 3097 
Q 1497 3097 1228 2736 
Q 959 2375 959 1747 
Q 959 1119 1226 758 
Q 1494 397 1959 397 
Q 2419 397 2687 759 
Q 2956 1122 2956 1747 
Q 2956 2369 2687 2733 
Q 2419 3097 1959 3097 
z
M 1959 3584 
Q 2709 3584 3137 3096 
Q 3566 2609 3566 1747 
Q 3566 888 3137 398 
Q 2709 -91 1959 -91 
Q 1206 -91 779 398 
Q 353 888 353 1747 
Q 353 2609 779 3096 
Q 1206 3584 1959 3584 
z
" transform="scale(0.015625)"/>
       <path id="DejaVuSans-75" d="M 544 1381 
L 544 3500 
L 1119 3500 
L 1119 1403 
Q 1119 906 1312 657 
Q 1506 409 1894 409 
Q 2359 409 2629 706 
Q 2900 1003 2900 1516 
L 2900 3500 
L 3475 3500 
L 3475 0 
L 2900 0 
L 2900 538 
Q 2691 219 2414 64 
Q 2138 -91 1772 -91 
Q 1169 -91 856 284 
Q 544 659 544 1381 
z
M 1991 3584 
L 1991 3584 
z
" transform="scale(0.015625)"/>
       <path id="DejaVuSans-74" d="M 1172 4494 
L 1172 3500 
L 2356 3500 
L 2356 3053 
L 1172 3053 
L 1172 1153 
Q 1172 725 1289 603 
Q 1406 481 1766 481 
L 2356 481 
L 2356 0 
L 1766 0 
Q 1100 0 847 248 
Q 594 497 594 1153 
L 594 3053 
L 172 3053 
L 172 3500 
L 594 3500 
L 594 4494 
L 1172 4494 
z
" transform="scale(0.015625)"/>
      </defs>
      <use xlink:href="#DejaVuSans-43"/>
      <use xlink:href="#DejaVuSans-6f" x="69.824219"/>
      <use xlink:href="#DejaVuSans-75" x="131.005859"/>
      <use xlink:href="#DejaVuSans-6e" x="194.384766"/>
      <use xlink:href="#DejaVuSans-74" x="257.763672"/>
     </g>
    </g>
   </g>
   <g id="line2d_29">
    <path d="M 194.115486 387.16 
L 194.115486 41.856 
" clip-path="url(#p901f4448af)" style="fill: none; stroke-dasharray: 7.4,3.2; stroke-dashoffset: 0; stroke: #ff0000; stroke-width: 2"/>
   </g>
   <g id="line2d_30">
    <path d="M 193.612903 387.16 
L 193.612903 41.856 
" clip-path="url(#p901f4448af)" style="fill: none; stroke-dasharray: 7.4,3.2; stroke-dashoffset: 0; stroke: #008000; stroke-width: 2"/>
   </g>
   <g id="patch_54">
    <path d="M 53.75 387.16 
L 53.75 41.856 
" style="fill: none; stroke: #000000; stroke-width: 0.8; stroke-linejoin: miter; stroke-linecap: square"/>
   </g>
   <g id="patch_55">
    <path d="M 702.167108 387.16 
L 702.167108 41.856 
" style="fill: none; stroke: #000000; stroke-width: 0.8; stroke-linejoin: miter; stroke-linecap: square"/>
   </g>
   <g id="patch_56">
    <path d="M 53.75 387.16 
L 702.167108 387.16 
" style="fill: none; stroke: #000000; stroke-width: 0.8; stroke-linejoin: miter; stroke-linecap: square"/>
   </g>
   <g id="patch_57">
    <path d="M 53.75 41.856 
L 702.167108 41.856 
" style="fill: none; stroke: #000000; stroke-width: 0.8; stroke-linejoin: miter; stroke-linecap: square"/>
   </g>
   <g id="text_17">
    <g id="patch_58">
     <path d="M 562.772203 131.062705 
L 689.198765 131.062705 
Q 694.198765 131.062705 694.198765 126.062705 
L 694.198765 48.76208 
Q 694.198765 43.76208 689.198765 43.76208 
L 562.772203 43.76208 
Q 557.772203 43.76208 557.772203 48.76208 
L 557.772203 126.062705 
Q 557.772203 131.062705 562.772203 131.062705 
z
" style="fill: #ffffff; opacity: 0.8; stroke: #808080; stroke-width: 0.8; stroke-linejoin: miter"/>
    </g>
    <!-- Statistics: -->
    <g transform="translate(622.975328 56.413642)scale(0.1 -0.1)">
     <defs>
      <path id="DejaVuSansMono-53" d="M 3163 4506 
L 3163 3866 
Q 2875 4050 2586 4144 
Q 2297 4238 2003 4238 
Q 1556 4238 1297 4030 
Q 1038 3822 1038 3469 
Q 1038 3159 1208 2996 
Q 1378 2834 1844 2725 
L 2175 2650 
Q 2831 2497 3131 2169 
Q 3431 1841 3431 1275 
Q 3431 609 3018 259 
Q 2606 -91 1819 -91 
Q 1491 -91 1159 -20 
Q 828 50 494 191 
L 494 863 
Q 853 634 1173 528 
Q 1494 422 1819 422 
Q 2297 422 2562 636 
Q 2828 850 2828 1234 
Q 2828 1584 2645 1768 
Q 2463 1953 2009 2053 
L 1672 2131 
Q 1022 2278 728 2575 
Q 434 2872 434 3372 
Q 434 3997 854 4373 
Q 1275 4750 1972 4750 
Q 2241 4750 2537 4689 
Q 2834 4628 3163 4506 
z
" transform="scale(0.015625)"/>
      <path id="DejaVuSansMono-74" d="M 1919 4494 
L 1919 3500 
L 3225 3500 
L 3225 3053 
L 1919 3053 
L 1919 1153 
Q 1919 766 2066 612 
Q 2213 459 2578 459 
L 3225 459 
L 3225 0 
L 2522 0 
Q 1875 0 1609 259 
Q 1344 519 1344 1153 
L 1344 3053 
L 409 3053 
L 409 3500 
L 1344 3500 
L 1344 4494 
L 1919 4494 
z
" transform="scale(0.015625)"/>
      <path id="DejaVuSansMono-61" d="M 2194 1759 
L 2003 1759 
Q 1500 1759 1245 1582 
Q 991 1406 991 1056 
Q 991 741 1181 566 
Q 1372 391 1709 391 
Q 2184 391 2456 720 
Q 2728 1050 2731 1631 
L 2731 1759 
L 2194 1759 
z
M 3309 1997 
L 3309 0 
L 2731 0 
L 2731 519 
Q 2547 206 2267 57 
Q 1988 -91 1588 -91 
Q 1053 -91 734 211 
Q 416 513 416 1019 
Q 416 1603 808 1906 
Q 1200 2209 1959 2209 
L 2731 2209 
L 2731 2300 
Q 2728 2719 2518 2908 
Q 2309 3097 1850 3097 
Q 1556 3097 1256 3012 
Q 956 2928 672 2766 
L 672 3341 
Q 991 3463 1283 3523 
Q 1575 3584 1850 3584 
Q 2284 3584 2592 3456 
Q 2900 3328 3091 3072 
Q 3209 2916 3259 2686 
Q 3309 2456 3309 1997 
z
" transform="scale(0.015625)"/>
      <path id="DejaVuSansMono-69" d="M 800 3500 
L 2272 3500 
L 2272 447 
L 3413 447 
L 3413 0 
L 556 0 
L 556 447 
L 1697 447 
L 1697 3053 
L 800 3053 
L 800 3500 
z
M 1697 4863 
L 2272 4863 
L 2272 4134 
L 1697 4134 
L 1697 4863 
z
" transform="scale(0.015625)"/>
      <path id="DejaVuSansMono-73" d="M 3041 3378 
L 3041 2816 
Q 2794 2959 2544 3031 
Q 2294 3103 2034 3103 
Q 1644 3103 1451 2976 
Q 1259 2850 1259 2591 
Q 1259 2356 1403 2240 
Q 1547 2125 2119 2016 
L 2350 1972 
Q 2778 1891 2998 1647 
Q 3219 1403 3219 1013 
Q 3219 494 2850 201 
Q 2481 -91 1825 -91 
Q 1566 -91 1281 -36 
Q 997 19 666 128 
L 666 722 
Q 988 556 1281 473 
Q 1575 391 1838 391 
Q 2219 391 2428 545 
Q 2638 700 2638 978 
Q 2638 1378 1872 1531 
L 1847 1538 
L 1631 1581 
Q 1134 1678 906 1908 
Q 678 2138 678 2534 
Q 678 3038 1018 3311 
Q 1359 3584 1991 3584 
Q 2272 3584 2531 3532 
Q 2791 3481 3041 3378 
z
" transform="scale(0.015625)"/>
      <path id="DejaVuSansMono-63" d="M 3316 178 
Q 3084 44 2839 -23 
Q 2594 -91 2338 -91 
Q 1525 -91 1067 396 
Q 609 884 609 1747 
Q 609 2609 1067 3096 
Q 1525 3584 2338 3584 
Q 2591 3584 2831 3518 
Q 3072 3453 3316 3316 
L 3316 2713 
Q 3088 2916 2858 3006 
Q 2628 3097 2338 3097 
Q 1797 3097 1506 2747 
Q 1216 2397 1216 1747 
Q 1216 1100 1508 748 
Q 1800 397 2338 397 
Q 2638 397 2875 489 
Q 3113 581 3316 775 
L 3316 178 
z
" transform="scale(0.015625)"/>
      <path id="DejaVuSansMono-3a" d="M 1528 3322 
L 2316 3322 
L 2316 2375 
L 1528 2375 
L 1528 3322 
z
M 1528 953 
L 2316 953 
L 2316 0 
L 1528 0 
L 1528 953 
z
" transform="scale(0.015625)"/>
     </defs>
     <use xlink:href="#DejaVuSansMono-53"/>
     <use xlink:href="#DejaVuSansMono-74" x="60.205078"/>
     <use xlink:href="#DejaVuSansMono-61" x="120.410156"/>
     <use xlink:href="#DejaVuSansMono-74" x="180.615234"/>
     <use xlink:href="#DejaVuSansMono-69" x="240.820312"/>
     <use xlink:href="#DejaVuSansMono-73" x="301.025391"/>
     <use xlink:href="#DejaVuSansMono-74" x="361.230469"/>
     <use xlink:href="#DejaVuSansMono-69" x="421.435547"/>
     <use xlink:href="#DejaVuSansMono-63" x="481.640625"/>
     <use xlink:href="#DejaVuSansMono-73" x="541.845703"/>
     <use xlink:href="#DejaVuSansMono-3a" x="602.050781"/>
    </g>
    <!--   N = 4471 -->
    <g transform="translate(628.99564 67.675205)scale(0.1 -0.1)">
     <defs>
      <path id="DejaVuSansMono-20" transform="scale(0.015625)"/>
      <path id="DejaVuSansMono-4e" d="M 434 4666 
L 1234 4666 
L 2809 825 
L 2809 4666 
L 3419 4666 
L 3419 0 
L 2619 0 
L 1044 3841 
L 1044 0 
L 434 0 
L 434 4666 
z
" transform="scale(0.015625)"/>
      <path id="DejaVuSansMono-3d" d="M 275 1638 
L 3578 1638 
L 3578 1100 
L 275 1100 
L 275 1638 
z
M 275 2906 
L 3578 2906 
L 3578 2375 
L 275 2375 
L 275 2906 
z
" transform="scale(0.015625)"/>
      <path id="DejaVuSansMono-34" d="M 2297 4091 
L 825 1625 
L 2297 1625 
L 2297 4091 
z
M 2194 4666 
L 2925 4666 
L 2925 1625 
L 3547 1625 
L 3547 1113 
L 2925 1113 
L 2925 0 
L 2297 0 
L 2297 1113 
L 319 1113 
L 319 1709 
L 2194 4666 
z
" transform="scale(0.015625)"/>
      <path id="DejaVuSansMono-37" d="M 434 4666 
L 3372 4666 
L 3372 4397 
L 1703 0 
L 1044 0 
L 2669 4134 
L 434 4134 
L 434 4666 
z
" transform="scale(0.015625)"/>
      <path id="DejaVuSansMono-31" d="M 844 531 
L 1825 531 
L 1825 4097 
L 769 3859 
L 769 4434 
L 1819 4666 
L 2450 4666 
L 2450 531 
L 3419 531 
L 3419 0 
L 844 0 
L 844 531 
z
" transform="scale(0.015625)"/>
     </defs>
     <use xlink:href="#DejaVuSansMono-20"/>
     <use xlink:href="#DejaVuSansMono-20" x="60.205078"/>
     <use xlink:href="#DejaVuSansMono-4e" x="120.410156"/>
     <use xlink:href="#DejaVuSansMono-20" x="180.615234"/>
     <use xlink:href="#DejaVuSansMono-3d" x="240.820312"/>
     <use xlink:href="#DejaVuSansMono-20" x="301.025391"/>
     <use xlink:href="#DejaVuSansMono-34" x="361.230469"/>
     <use xlink:href="#DejaVuSansMono-34" x="421.435547"/>
     <use xlink:href="#DejaVuSansMono-37" x="481.640625"/>
     <use xlink:href="#DejaVuSansMono-31" x="541.845703"/>
    </g>
    <!--   Min = 893.75 ADC -->
    <g transform="translate(580.83314 78.936767)scale(0.1 -0.1)">
     <defs>
      <path id="DejaVuSansMono-4d" d="M 269 4666 
L 1113 4666 
L 1919 2291 
L 2731 4666 
L 3578 4666 
L 3578 0 
L 2994 0 
L 2994 4122 
L 2163 1663 
L 1684 1663 
L 850 4122 
L 850 0 
L 269 0 
L 269 4666 
z
" transform="scale(0.015625)"/>
      <path id="DejaVuSansMono-6e" d="M 3284 2169 
L 3284 0 
L 2706 0 
L 2706 2169 
Q 2706 2641 2540 2862 
Q 2375 3084 2022 3084 
Q 1619 3084 1401 2798 
Q 1184 2513 1184 1978 
L 1184 0 
L 609 0 
L 609 3500 
L 1184 3500 
L 1184 2975 
Q 1338 3275 1600 3429 
Q 1863 3584 2222 3584 
Q 2756 3584 3020 3232 
Q 3284 2881 3284 2169 
z
" transform="scale(0.015625)"/>
      <path id="DejaVuSansMono-38" d="M 1925 2216 
Q 1503 2216 1273 1980 
Q 1044 1744 1044 1313 
Q 1044 881 1276 642 
Q 1509 403 1925 403 
Q 2350 403 2579 639 
Q 2809 875 2809 1313 
Q 2809 1741 2576 1978 
Q 2344 2216 1925 2216 
z
M 1375 2478 
Q 972 2581 745 2862 
Q 519 3144 519 3541 
Q 519 4097 897 4423 
Q 1275 4750 1925 4750 
Q 2578 4750 2956 4423 
Q 3334 4097 3334 3541 
Q 3334 3144 3107 2862 
Q 2881 2581 2478 2478 
Q 2947 2375 3195 2062 
Q 3444 1750 3444 1253 
Q 3444 622 3041 265 
Q 2638 -91 1925 -91 
Q 1213 -91 811 264 
Q 409 619 409 1247 
Q 409 1747 657 2061 
Q 906 2375 1375 2478 
z
M 1147 3481 
Q 1147 3106 1347 2909 
Q 1547 2713 1925 2713 
Q 2306 2713 2506 2909 
Q 2706 3106 2706 3481 
Q 2706 3863 2507 4063 
Q 2309 4263 1925 4263 
Q 1547 4263 1347 4061 
Q 1147 3859 1147 3481 
z
" transform="scale(0.015625)"/>
      <path id="DejaVuSansMono-39" d="M 1863 2069 
Q 2266 2069 2495 2359 
Q 2725 2650 2725 3163 
Q 2725 3675 2495 3965 
Q 2266 4256 1863 4256 
Q 1444 4256 1231 3979 
Q 1019 3703 1019 3163 
Q 1019 2619 1230 2344 
Q 1441 2069 1863 2069 
z
M 738 97 
L 738 678 
Q 934 563 1156 502 
Q 1378 441 1619 441 
Q 2219 441 2526 892 
Q 2834 1344 2834 2222 
Q 2688 1909 2422 1742 
Q 2156 1575 1813 1575 
Q 1138 1575 767 1990 
Q 397 2406 397 3169 
Q 397 3922 776 4336 
Q 1156 4750 1850 4750 
Q 2663 4750 3041 4165 
Q 3419 3581 3419 2328 
Q 3419 1150 2964 529 
Q 2509 -91 1644 -91 
Q 1416 -91 1184 -42 
Q 953 6 738 97 
z
" transform="scale(0.015625)"/>
      <path id="DejaVuSansMono-33" d="M 2425 2497 
Q 2884 2375 3128 2064 
Q 3372 1753 3372 1288 
Q 3372 644 2939 276 
Q 2506 -91 1741 -91 
Q 1419 -91 1084 -31 
Q 750 28 428 141 
L 428 769 
Q 747 603 1056 522 
Q 1366 441 1672 441 
Q 2191 441 2469 675 
Q 2747 909 2747 1350 
Q 2747 1756 2469 1995 
Q 2191 2234 1716 2234 
L 1234 2234 
L 1234 2753 
L 1716 2753 
Q 2150 2753 2394 2943 
Q 2638 3134 2638 3475 
Q 2638 3834 2411 4026 
Q 2184 4219 1766 4219 
Q 1488 4219 1191 4156 
Q 894 4094 569 3969 
L 569 4550 
Q 947 4650 1242 4700 
Q 1538 4750 1766 4750 
Q 2447 4750 2855 4408 
Q 3263 4066 3263 3500 
Q 3263 3116 3048 2859 
Q 2834 2603 2425 2497 
z
" transform="scale(0.015625)"/>
      <path id="DejaVuSansMono-2e" d="M 1528 953 
L 2316 953 
L 2316 0 
L 1528 0 
L 1528 953 
z
" transform="scale(0.015625)"/>
      <path id="DejaVuSansMono-35" d="M 647 4666 
L 3009 4666 
L 3009 4134 
L 1222 4134 
L 1222 2988 
Q 1356 3038 1492 3061 
Q 1628 3084 1766 3084 
Q 2491 3084 2916 2656 
Q 3341 2228 3341 1497 
Q 3341 759 2895 334 
Q 2450 -91 1678 -91 
Q 1306 -91 998 -41 
Q 691 9 447 109 
L 447 750 
Q 734 594 1025 517 
Q 1316 441 1619 441 
Q 2141 441 2423 716 
Q 2706 991 2706 1497 
Q 2706 1997 2414 2275 
Q 2122 2553 1600 2553 
Q 1347 2553 1106 2495 
Q 866 2438 647 2322 
L 647 4666 
z
" transform="scale(0.015625)"/>
      <path id="DejaVuSansMono-41" d="M 1925 4109 
L 1259 1722 
L 2591 1722 
L 1925 4109 
z
M 1544 4666 
L 2309 4666 
L 3738 0 
L 3084 0 
L 2741 1216 
L 1106 1216 
L 769 0 
L 116 0 
L 1544 4666 
z
" transform="scale(0.015625)"/>
      <path id="DejaVuSansMono-44" d="M 1363 519 
Q 2159 519 2475 911 
Q 2791 1303 2791 2328 
Q 2791 3363 2477 3755 
Q 2163 4147 1363 4147 
L 1063 4147 
L 1063 519 
L 1363 519 
z
M 1375 4666 
Q 2444 4666 2950 4097 
Q 3456 3528 3456 2328 
Q 3456 1134 2950 567 
Q 2444 0 1375 0 
L 428 0 
L 428 4666 
L 1375 4666 
z
" transform="scale(0.015625)"/>
      <path id="DejaVuSansMono-43" d="M 3353 166 
Q 3113 38 2859 -26 
Q 2606 -91 2322 -91 
Q 1425 -91 929 543 
Q 434 1178 434 2328 
Q 434 3472 932 4111 
Q 1431 4750 2322 4750 
Q 2606 4750 2859 4686 
Q 3113 4622 3353 4494 
L 3353 3847 
Q 3122 4038 2856 4138 
Q 2591 4238 2322 4238 
Q 1706 4238 1400 3763 
Q 1094 3288 1094 2328 
Q 1094 1372 1400 897 
Q 1706 422 2322 422 
Q 2597 422 2861 522 
Q 3125 622 3353 813 
L 3353 166 
z
" transform="scale(0.015625)"/>
     </defs>
     <use xlink:href="#DejaVuSansMono-20"/>
     <use xlink:href="#DejaVuSansMono-20" x="60.205078"/>
     <use xlink:href="#DejaVuSansMono-4d" x="120.410156"/>
     <use xlink:href="#DejaVuSansMono-69" x="180.615234"/>
     <use xlink:href="#DejaVuSansMono-6e" x="240.820312"/>
     <use xlink:href="#DejaVuSansMono-20" x="301.025391"/>
     <use xlink:href="#DejaVuSansMono-3d" x="361.230469"/>
     <use xlink:href="#DejaVuSansMono-20" x="421.435547"/>
     <use xlink:href="#DejaVuSansMono-38" x="481.640625"/>
     <use xlink:href="#DejaVuSansMono-39" x="541.845703"/>
     <use xlink:href="#DejaVuSansMono-33" x="602.050781"/>
     <use xlink:href="#DejaVuSansMono-2e" x="662.255859"/>
     <use xlink:href="#DejaVuSansMono-37" x="722.460938"/>
     <use xlink:href="#DejaVuSansMono-35" x="782.666016"/>
     <use xlink:href="#DejaVuSansMono-20" x="842.871094"/>
     <use xlink:href="#DejaVuSansMono-41" x="903.076172"/>
     <use xlink:href="#DejaVuSansMono-44" x="963.28125"/>
     <use xlink:href="#DejaVuSansMono-43" x="1023.486328"/>
    </g>
    <!--   Max = 1381.03 ADC -->
    <g transform="translate(574.812828 90.19833)scale(0.1 -0.1)">
     <defs>
      <path id="DejaVuSansMono-78" d="M 3494 3500 
L 2241 1825 
L 3616 0 
L 2950 0 
L 1925 1403 
L 903 0 
L 238 0 
L 1613 1825 
L 359 3500 
L 997 3500 
L 1925 2234 
L 2847 3500 
L 3494 3500 
z
" transform="scale(0.015625)"/>
      <path id="DejaVuSansMono-30" d="M 1509 2344 
Q 1509 2516 1629 2641 
Q 1750 2766 1919 2766 
Q 2094 2766 2219 2641 
Q 2344 2516 2344 2344 
Q 2344 2169 2220 2047 
Q 2097 1925 1919 1925 
Q 1744 1925 1626 2044 
Q 1509 2163 1509 2344 
z
M 1925 4250 
Q 1484 4250 1267 3775 
Q 1050 3300 1050 2328 
Q 1050 1359 1267 884 
Q 1484 409 1925 409 
Q 2369 409 2586 884 
Q 2803 1359 2803 2328 
Q 2803 3300 2586 3775 
Q 2369 4250 1925 4250 
z
M 1925 4750 
Q 2672 4750 3055 4137 
Q 3438 3525 3438 2328 
Q 3438 1134 3055 521 
Q 2672 -91 1925 -91 
Q 1178 -91 797 521 
Q 416 1134 416 2328 
Q 416 3525 797 4137 
Q 1178 4750 1925 4750 
z
" transform="scale(0.015625)"/>
     </defs>
     <use xlink:href="#DejaVuSansMono-20"/>
     <use xlink:href="#DejaVuSansMono-20" x="60.205078"/>
     <use xlink:href="#DejaVuSansMono-4d" x="120.410156"/>
     <use xlink:href="#DejaVuSansMono-61" x="180.615234"/>
     <use xlink:href="#DejaVuSansMono-78" x="240.820312"/>
     <use xlink:href="#DejaVuSansMono-20" x="301.025391"/>
     <use xlink:href="#DejaVuSansMono-3d" x="361.230469"/>
     <use xlink:href="#DejaVuSansMono-20" x="421.435547"/>
     <use xlink:href="#DejaVuSansMono-31" x="481.640625"/>
     <use xlink:href="#DejaVuSansMono-33" x="541.845703"/>
     <use xlink:href="#DejaVuSansMono-38" x="602.050781"/>
     <use xlink:href="#DejaVuSansMono-31" x="662.255859"/>
     <use xlink:href="#DejaVuSansMono-2e" x="722.460938"/>
     <use xlink:href="#DejaVuSansMono-30" x="782.666016"/>
     <use xlink:href="#DejaVuSansMono-33" x="842.871094"/>
     <use xlink:href="#DejaVuSansMono-20" x="903.076172"/>
     <use xlink:href="#DejaVuSansMono-41" x="963.28125"/>
     <use xlink:href="#DejaVuSansMono-44" x="1023.486328"/>
     <use xlink:href="#DejaVuSansMono-43" x="1083.691406"/>
    </g>
    <!--   Mean = 985.42 ADC -->
    <g transform="translate(574.812828 101.459892)scale(0.1 -0.1)">
     <defs>
      <path id="DejaVuSansMono-65" d="M 3475 1894 
L 3475 1613 
L 984 1613 
L 984 1594 
Q 984 1022 1282 709 
Q 1581 397 2125 397 
Q 2400 397 2700 484 
Q 3000 572 3341 750 
L 3341 178 
Q 3013 44 2708 -23 
Q 2403 -91 2119 -91 
Q 1303 -91 843 398 
Q 384 888 384 1747 
Q 384 2584 834 3084 
Q 1284 3584 2034 3584 
Q 2703 3584 3089 3131 
Q 3475 2678 3475 1894 
z
M 2900 2063 
Q 2888 2569 2661 2833 
Q 2434 3097 2009 3097 
Q 1594 3097 1325 2822 
Q 1056 2547 1006 2059 
L 2900 2063 
z
" transform="scale(0.015625)"/>
      <path id="DejaVuSansMono-32" d="M 1166 531 
L 3309 531 
L 3309 0 
L 475 0 
L 475 531 
Q 1059 1147 1496 1619 
Q 1934 2091 2100 2284 
Q 2413 2666 2522 2902 
Q 2631 3138 2631 3384 
Q 2631 3775 2401 3997 
Q 2172 4219 1772 4219 
Q 1488 4219 1175 4116 
Q 863 4013 513 3803 
L 513 4441 
Q 834 4594 1145 4672 
Q 1456 4750 1759 4750 
Q 2444 4750 2861 4386 
Q 3278 4022 3278 3431 
Q 3278 3131 3139 2831 
Q 3000 2531 2688 2169 
Q 2513 1966 2180 1606 
Q 1847 1247 1166 531 
z
" transform="scale(0.015625)"/>
     </defs>
     <use xlink:href="#DejaVuSansMono-20"/>
     <use xlink:href="#DejaVuSansMono-20" x="60.205078"/>
     <use xlink:href="#DejaVuSansMono-4d" x="120.410156"/>
     <use xlink:href="#DejaVuSansMono-65" x="180.615234"/>
     <use xlink:href="#DejaVuSansMono-61" x="240.820312"/>
     <use xlink:href="#DejaVuSansMono-6e" x="301.025391"/>
     <use xlink:href="#DejaVuSansMono-20" x="361.230469"/>
     <use xlink:href="#DejaVuSansMono-3d" x="421.435547"/>
     <use xlink:href="#DejaVuSansMono-20" x="481.640625"/>
     <use xlink:href="#DejaVuSansMono-39" x="541.845703"/>
     <use xlink:href="#DejaVuSansMono-38" x="602.050781"/>
     <use xlink:href="#DejaVuSansMono-35" x="662.255859"/>
     <use xlink:href="#DejaVuSansMono-2e" x="722.460938"/>
     <use xlink:href="#DejaVuSansMono-34" x="782.666016"/>
     <use xlink:href="#DejaVuSansMono-32" x="842.871094"/>
     <use xlink:href="#DejaVuSansMono-20" x="903.076172"/>
     <use xlink:href="#DejaVuSansMono-41" x="963.28125"/>
     <use xlink:href="#DejaVuSansMono-44" x="1023.486328"/>
     <use xlink:href="#DejaVuSansMono-43" x="1083.691406"/>
    </g>
    <!--   Median = 985.00 ADC -->
    <g transform="translate(562.772203 112.721455)scale(0.1 -0.1)">
     <defs>
      <path id="DejaVuSansMono-64" d="M 2681 3053 
L 2681 4863 
L 3256 4863 
L 3256 0 
L 2681 0 
L 2681 441 
Q 2538 181 2298 45 
Q 2059 -91 1747 -91 
Q 1113 -91 748 401 
Q 384 894 384 1759 
Q 384 2613 750 3098 
Q 1116 3584 1747 3584 
Q 2063 3584 2303 3448 
Q 2544 3313 2681 3053 
z
M 991 1747 
Q 991 1078 1203 737 
Q 1416 397 1831 397 
Q 2247 397 2464 740 
Q 2681 1084 2681 1747 
Q 2681 2413 2464 2755 
Q 2247 3097 1831 3097 
Q 1416 3097 1203 2756 
Q 991 2416 991 1747 
z
" transform="scale(0.015625)"/>
     </defs>
     <use xlink:href="#DejaVuSansMono-20"/>
     <use xlink:href="#DejaVuSansMono-20" x="60.205078"/>
     <use xlink:href="#DejaVuSansMono-4d" x="120.410156"/>
     <use xlink:href="#DejaVuSansMono-65" x="180.615234"/>
     <use xlink:href="#DejaVuSansMono-64" x="240.820312"/>
     <use xlink:href="#DejaVuSansMono-69" x="301.025391"/>
     <use xlink:href="#DejaVuSansMono-61" x="361.230469"/>
     <use xlink:href="#DejaVuSansMono-6e" x="421.435547"/>
     <use xlink:href="#DejaVuSansMono-20" x="481.640625"/>
     <use xlink:href="#DejaVuSansMono-3d" x="541.845703"/>
     <use xlink:href="#DejaVuSansMono-20" x="602.050781"/>
     <use xlink:href="#DejaVuSansMono-39" x="662.255859"/>
     <use xlink:href="#DejaVuSansMono-38" x="722.460938"/>
     <use xlink:href="#DejaVuSansMono-35" x="782.666016"/>
     <use xlink:href="#DejaVuSansMono-2e" x="842.871094"/>
     <use xlink:href="#DejaVuSansMono-30" x="903.076172"/>
     <use xlink:href="#DejaVuSansMono-30" x="963.28125"/>
     <use xlink:href="#DejaVuSansMono-20" x="1023.486328"/>
     <use xlink:href="#DejaVuSansMono-41" x="1083.691406"/>
     <use xlink:href="#DejaVuSansMono-44" x="1143.896484"/>
     <use xlink:href="#DejaVuSansMono-43" x="1204.101562"/>
    </g>
    <!--   Std = 26.62 ADC -->
    <g transform="translate(586.853453 123.983017)scale(0.1 -0.1)">
     <defs>
      <path id="DejaVuSansMono-36" d="M 3097 4563 
L 3097 3981 
Q 2900 4097 2678 4158 
Q 2456 4219 2216 4219 
Q 1616 4219 1306 3767 
Q 997 3316 997 2438 
Q 1147 2750 1412 2917 
Q 1678 3084 2022 3084 
Q 2697 3084 3067 2670 
Q 3438 2256 3438 1497 
Q 3438 741 3056 325 
Q 2675 -91 1984 -91 
Q 1172 -91 794 492 
Q 416 1075 416 2328 
Q 416 3509 870 4129 
Q 1325 4750 2188 4750 
Q 2419 4750 2650 4701 
Q 2881 4653 3097 4563 
z
M 1972 2591 
Q 1569 2591 1337 2300 
Q 1106 2009 1106 1497 
Q 1106 984 1337 693 
Q 1569 403 1972 403 
Q 2391 403 2603 679 
Q 2816 956 2816 1497 
Q 2816 2041 2603 2316 
Q 2391 2591 1972 2591 
z
" transform="scale(0.015625)"/>
     </defs>
     <use xlink:href="#DejaVuSansMono-20"/>
     <use xlink:href="#DejaVuSansMono-20" x="60.205078"/>
     <use xlink:href="#DejaVuSansMono-53" x="120.410156"/>
     <use xlink:href="#DejaVuSansMono-74" x="180.615234"/>
     <use xlink:href="#DejaVuSansMono-64" x="240.820312"/>
     <use xlink:href="#DejaVuSansMono-20" x="301.025391"/>
     <use xlink:href="#DejaVuSansMono-3d" x="361.230469"/>
     <use xlink:href="#DejaVuSansMono-20" x="421.435547"/>
     <use xlink:href="#DejaVuSansMono-32" x="481.640625"/>
     <use xlink:href="#DejaVuSansMono-36" x="541.845703"/>
     <use xlink:href="#DejaVuSansMono-2e" x="602.050781"/>
     <use xlink:href="#DejaVuSansMono-36" x="662.255859"/>
     <use xlink:href="#DejaVuSansMono-32" x="722.460938"/>
     <use xlink:href="#DejaVuSansMono-20" x="782.666016"/>
     <use xlink:href="#DejaVuSansMono-41" x="842.871094"/>
     <use xlink:href="#DejaVuSansMono-44" x="903.076172"/>
     <use xlink:href="#DejaVuSansMono-43" x="963.28125"/>
    </g>
   </g>
   <g id="text_18">
    <!-- Baseline Distribution (CH0) -->
    <g transform="translate(277.907304 21.298844)scale(0.13 -0.13)">
     <defs>
      <path id="DejaVuSans-Bold-42" d="M 2456 2859 
Q 2741 2859 2887 2984 
Q 3034 3109 3034 3353 
Q 3034 3594 2887 3720 
Q 2741 3847 2456 3847 
L 1791 3847 
L 1791 2859 
L 2456 2859 
z
M 2497 819 
Q 2859 819 3042 972 
Q 3225 1125 3225 1434 
Q 3225 1738 3044 1889 
Q 2863 2041 2497 2041 
L 1791 2041 
L 1791 819 
L 2497 819 
z
M 3616 2497 
Q 4003 2384 4215 2081 
Q 4428 1778 4428 1338 
Q 4428 663 3972 331 
Q 3516 0 2584 0 
L 588 0 
L 588 4666 
L 2394 4666 
Q 3366 4666 3802 4372 
Q 4238 4078 4238 3431 
Q 4238 3091 4078 2852 
Q 3919 2613 3616 2497 
z
" transform="scale(0.015625)"/>
      <path id="DejaVuSans-Bold-61" d="M 2106 1575 
Q 1756 1575 1579 1456 
Q 1403 1338 1403 1106 
Q 1403 894 1545 773 
Q 1688 653 1941 653 
Q 2256 653 2472 879 
Q 2688 1106 2688 1447 
L 2688 1575 
L 2106 1575 
z
M 3816 1997 
L 3816 0 
L 2688 0 
L 2688 519 
Q 2463 200 2181 54 
Q 1900 -91 1497 -91 
Q 953 -91 614 226 
Q 275 544 275 1050 
Q 275 1666 698 1953 
Q 1122 2241 2028 2241 
L 2688 2241 
L 2688 2328 
Q 2688 2594 2478 2717 
Q 2269 2841 1825 2841 
Q 1466 2841 1156 2769 
Q 847 2697 581 2553 
L 581 3406 
Q 941 3494 1303 3539 
Q 1666 3584 2028 3584 
Q 2975 3584 3395 3211 
Q 3816 2838 3816 1997 
z
" transform="scale(0.015625)"/>
      <path id="DejaVuSans-Bold-73" d="M 3272 3391 
L 3272 2541 
Q 2913 2691 2578 2766 
Q 2244 2841 1947 2841 
Q 1628 2841 1473 2761 
Q 1319 2681 1319 2516 
Q 1319 2381 1436 2309 
Q 1553 2238 1856 2203 
L 2053 2175 
Q 2913 2066 3209 1816 
Q 3506 1566 3506 1031 
Q 3506 472 3093 190 
Q 2681 -91 1863 -91 
Q 1516 -91 1145 -36 
Q 775 19 384 128 
L 384 978 
Q 719 816 1070 734 
Q 1422 653 1784 653 
Q 2113 653 2278 743 
Q 2444 834 2444 1013 
Q 2444 1163 2330 1236 
Q 2216 1309 1875 1350 
L 1678 1375 
Q 931 1469 631 1722 
Q 331 1975 331 2491 
Q 331 3047 712 3315 
Q 1094 3584 1881 3584 
Q 2191 3584 2531 3537 
Q 2872 3491 3272 3391 
z
" transform="scale(0.015625)"/>
      <path id="DejaVuSans-Bold-65" d="M 4031 1759 
L 4031 1441 
L 1416 1441 
Q 1456 1047 1700 850 
Q 1944 653 2381 653 
Q 2734 653 3104 758 
Q 3475 863 3866 1075 
L 3866 213 
Q 3469 63 3072 -14 
Q 2675 -91 2278 -91 
Q 1328 -91 801 392 
Q 275 875 275 1747 
Q 275 2603 792 3093 
Q 1309 3584 2216 3584 
Q 3041 3584 3536 3087 
Q 4031 2591 4031 1759 
z
M 2881 2131 
Q 2881 2450 2695 2645 
Q 2509 2841 2209 2841 
Q 1884 2841 1681 2658 
Q 1478 2475 1428 2131 
L 2881 2131 
z
" transform="scale(0.015625)"/>
      <path id="DejaVuSans-Bold-6c" d="M 538 4863 
L 1656 4863 
L 1656 0 
L 538 0 
L 538 4863 
z
" transform="scale(0.015625)"/>
      <path id="DejaVuSans-Bold-69" d="M 538 3500 
L 1656 3500 
L 1656 0 
L 538 0 
L 538 3500 
z
M 538 4863 
L 1656 4863 
L 1656 3950 
L 538 3950 
L 538 4863 
z
" transform="scale(0.015625)"/>
      <path id="DejaVuSans-Bold-6e" d="M 4056 2131 
L 4056 0 
L 2931 0 
L 2931 347 
L 2931 1631 
Q 2931 2084 2911 2256 
Q 2891 2428 2841 2509 
Q 2775 2619 2662 2680 
Q 2550 2741 2406 2741 
Q 2056 2741 1856 2470 
Q 1656 2200 1656 1722 
L 1656 0 
L 538 0 
L 538 3500 
L 1656 3500 
L 1656 2988 
Q 1909 3294 2193 3439 
Q 2478 3584 2822 3584 
Q 3428 3584 3742 3212 
Q 4056 2841 4056 2131 
z
" transform="scale(0.015625)"/>
      <path id="DejaVuSans-Bold-20" transform="scale(0.015625)"/>
      <path id="DejaVuSans-Bold-44" d="M 1791 3756 
L 1791 909 
L 2222 909 
Q 2959 909 3348 1275 
Q 3738 1641 3738 2338 
Q 3738 3031 3350 3393 
Q 2963 3756 2222 3756 
L 1791 3756 
z
M 588 4666 
L 1856 4666 
Q 2919 4666 3439 4514 
Q 3959 4363 4331 4000 
Q 4659 3684 4818 3271 
Q 4978 2859 4978 2338 
Q 4978 1809 4818 1395 
Q 4659 981 4331 666 
Q 3956 303 3431 151 
Q 2906 0 1856 0 
L 588 0 
L 588 4666 
z
" transform="scale(0.015625)"/>
      <path id="DejaVuSans-Bold-74" d="M 1759 4494 
L 1759 3500 
L 2913 3500 
L 2913 2700 
L 1759 2700 
L 1759 1216 
Q 1759 972 1856 886 
Q 1953 800 2241 800 
L 2816 800 
L 2816 0 
L 1856 0 
Q 1194 0 917 276 
Q 641 553 641 1216 
L 641 2700 
L 84 2700 
L 84 3500 
L 641 3500 
L 641 4494 
L 1759 4494 
z
" transform="scale(0.015625)"/>
      <path id="DejaVuSans-Bold-72" d="M 3138 2547 
Q 2991 2616 2845 2648 
Q 2700 2681 2553 2681 
Q 2122 2681 1889 2404 
Q 1656 2128 1656 1613 
L 1656 0 
L 538 0 
L 538 3500 
L 1656 3500 
L 1656 2925 
Q 1872 3269 2151 3426 
Q 2431 3584 2822 3584 
Q 2878 3584 2943 3579 
Q 3009 3575 3134 3559 
L 3138 2547 
z
" transform="scale(0.015625)"/>
      <path id="DejaVuSans-Bold-62" d="M 2400 722 
Q 2759 722 2948 984 
Q 3138 1247 3138 1747 
Q 3138 2247 2948 2509 
Q 2759 2772 2400 2772 
Q 2041 2772 1848 2508 
Q 1656 2244 1656 1747 
Q 1656 1250 1848 986 
Q 2041 722 2400 722 
z
M 1656 2988 
Q 1888 3294 2169 3439 
Q 2450 3584 2816 3584 
Q 3463 3584 3878 3070 
Q 4294 2556 4294 1747 
Q 4294 938 3878 423 
Q 3463 -91 2816 -91 
Q 2450 -91 2169 54 
Q 1888 200 1656 506 
L 1656 0 
L 538 0 
L 538 4863 
L 1656 4863 
L 1656 2988 
z
" transform="scale(0.015625)"/>
      <path id="DejaVuSans-Bold-75" d="M 500 1363 
L 500 3500 
L 1625 3500 
L 1625 3150 
Q 1625 2866 1622 2436 
Q 1619 2006 1619 1863 
Q 1619 1441 1641 1255 
Q 1663 1069 1716 984 
Q 1784 875 1895 815 
Q 2006 756 2150 756 
Q 2500 756 2700 1025 
Q 2900 1294 2900 1772 
L 2900 3500 
L 4019 3500 
L 4019 0 
L 2900 0 
L 2900 506 
Q 2647 200 2364 54 
Q 2081 -91 1741 -91 
Q 1134 -91 817 281 
Q 500 653 500 1363 
z
" transform="scale(0.015625)"/>
      <path id="DejaVuSans-Bold-6f" d="M 2203 2784 
Q 1831 2784 1636 2517 
Q 1441 2250 1441 1747 
Q 1441 1244 1636 976 
Q 1831 709 2203 709 
Q 2569 709 2762 976 
Q 2956 1244 2956 1747 
Q 2956 2250 2762 2517 
Q 2569 2784 2203 2784 
z
M 2203 3584 
Q 3106 3584 3614 3096 
Q 4122 2609 4122 1747 
Q 4122 884 3614 396 
Q 3106 -91 2203 -91 
Q 1297 -91 786 396 
Q 275 884 275 1747 
Q 275 2609 786 3096 
Q 1297 3584 2203 3584 
z
" transform="scale(0.015625)"/>
      <path id="DejaVuSans-Bold-28" d="M 2413 -844 
L 1484 -844 
Q 1006 -72 778 623 
Q 550 1319 550 2003 
Q 550 2688 779 3389 
Q 1009 4091 1484 4856 
L 2413 4856 
Q 2013 4116 1813 3408 
Q 1613 2700 1613 2009 
Q 1613 1319 1811 609 
Q 2009 -100 2413 -844 
z
" transform="scale(0.015625)"/>
      <path id="DejaVuSans-Bold-43" d="M 4288 256 
Q 3956 84 3597 -3 
Q 3238 -91 2847 -91 
Q 1681 -91 1000 561 
Q 319 1213 319 2328 
Q 319 3447 1000 4098 
Q 1681 4750 2847 4750 
Q 3238 4750 3597 4662 
Q 3956 4575 4288 4403 
L 4288 3438 
Q 3953 3666 3628 3772 
Q 3303 3878 2944 3878 
Q 2300 3878 1931 3465 
Q 1563 3053 1563 2328 
Q 1563 1606 1931 1193 
Q 2300 781 2944 781 
Q 3303 781 3628 887 
Q 3953 994 4288 1222 
L 4288 256 
z
" transform="scale(0.015625)"/>
      <path id="DejaVuSans-Bold-48" d="M 588 4666 
L 1791 4666 
L 1791 2888 
L 3566 2888 
L 3566 4666 
L 4769 4666 
L 4769 0 
L 3566 0 
L 3566 1978 
L 1791 1978 
L 1791 0 
L 588 0 
L 588 4666 
z
" transform="scale(0.015625)"/>
      <path id="DejaVuSans-Bold-30" d="M 2944 2338 
Q 2944 3213 2780 3570 
Q 2616 3928 2228 3928 
Q 1841 3928 1675 3570 
Q 1509 3213 1509 2338 
Q 1509 1453 1675 1090 
Q 1841 728 2228 728 
Q 2613 728 2778 1090 
Q 2944 1453 2944 2338 
z
M 4147 2328 
Q 4147 1169 3647 539 
Q 3147 -91 2228 -91 
Q 1306 -91 806 539 
Q 306 1169 306 2328 
Q 306 3491 806 4120 
Q 1306 4750 2228 4750 
Q 3147 4750 3647 4120 
Q 4147 3491 4147 2328 
z
" transform="scale(0.015625)"/>
      <path id="DejaVuSans-Bold-29" d="M 513 -844 
Q 913 -100 1113 609 
Q 1313 1319 1313 2009 
Q 1313 2700 1113 3408 
Q 913 4116 513 4856 
L 1441 4856 
Q 1916 4091 2145 3389 
Q 2375 2688 2375 2003 
Q 2375 1319 2147 623 
Q 1919 -72 1441 -844 
L 513 -844 
z
" transform="scale(0.015625)"/>
     </defs>
     <use xlink:href="#DejaVuSans-Bold-42"/>
     <use xlink:href="#DejaVuSans-Bold-61" x="76.220703"/>
     <use xlink:href="#DejaVuSans-Bold-73" x="143.701172"/>
     <use xlink:href="#DejaVuSans-Bold-65" x="203.222656"/>
     <use xlink:href="#DejaVuSans-Bold-6c" x="271.044922"/>
     <use xlink:href="#DejaVuSans-Bold-69" x="305.322266"/>
     <use xlink:href="#DejaVuSans-Bold-6e" x="339.599609"/>
     <use xlink:href="#DejaVuSans-Bold-65" x="410.791016"/>
     <use xlink:href="#DejaVuSans-Bold-20" x="478.613281"/>
     <use xlink:href="#DejaVuSans-Bold-44" x="513.427734"/>
     <use xlink:href="#DejaVuSans-Bold-69" x="596.435547"/>
     <use xlink:href="#DejaVuSans-Bold-73" x="630.712891"/>
     <use xlink:href="#DejaVuSans-Bold-74" x="690.234375"/>
     <use xlink:href="#DejaVuSans-Bold-72" x="738.037109"/>
     <use xlink:href="#DejaVuSans-Bold-69" x="787.353516"/>
     <use xlink:href="#DejaVuSans-Bold-62" x="821.630859"/>
     <use xlink:href="#DejaVuSans-Bold-75" x="893.212891"/>
     <use xlink:href="#DejaVuSans-Bold-74" x="964.404297"/>
     <use xlink:href="#DejaVuSans-Bold-69" x="1012.207031"/>
     <use xlink:href="#DejaVuSans-Bold-6f" x="1046.484375"/>
     <use xlink:href="#DejaVuSans-Bold-6e" x="1115.185547"/>
     <use xlink:href="#DejaVuSans-Bold-20" x="1186.376953"/>
     <use xlink:href="#DejaVuSans-Bold-28" x="1221.191406"/>
     <use xlink:href="#DejaVuSans-Bold-43" x="1266.894531"/>
     <use xlink:href="#DejaVuSans-Bold-48" x="1340.283203"/>
     <use xlink:href="#DejaVuSans-Bold-30" x="1423.974609"/>
     <use xlink:href="#DejaVuSans-Bold-29" x="1493.554688"/>
    </g>
    <!-- Total Events: 4471, Mean: 985.42  26.62 ADC, Range: [893.75, 1381.03] ADC -->
    <g transform="translate(92.243944 35.856)scale(0.13 -0.13)">
     <defs>
      <path id="DejaVuSans-Bold-54" d="M 31 4666 
L 4331 4666 
L 4331 3756 
L 2784 3756 
L 2784 0 
L 1581 0 
L 1581 3756 
L 31 3756 
L 31 4666 
z
" transform="scale(0.015625)"/>
      <path id="DejaVuSans-Bold-45" d="M 588 4666 
L 3834 4666 
L 3834 3756 
L 1791 3756 
L 1791 2888 
L 3713 2888 
L 3713 1978 
L 1791 1978 
L 1791 909 
L 3903 909 
L 3903 0 
L 588 0 
L 588 4666 
z
" transform="scale(0.015625)"/>
      <path id="DejaVuSans-Bold-76" d="M 97 3500 
L 1216 3500 
L 2088 1081 
L 2956 3500 
L 4078 3500 
L 2700 0 
L 1472 0 
L 97 3500 
z
" transform="scale(0.015625)"/>
      <path id="DejaVuSans-Bold-3a" d="M 716 3500 
L 1844 3500 
L 1844 2291 
L 716 2291 
L 716 3500 
z
M 716 1209 
L 1844 1209 
L 1844 0 
L 716 0 
L 716 1209 
z
" transform="scale(0.015625)"/>
      <path id="DejaVuSans-Bold-34" d="M 2356 3675 
L 1038 1722 
L 2356 1722 
L 2356 3675 
z
M 2156 4666 
L 3494 4666 
L 3494 1722 
L 4159 1722 
L 4159 850 
L 3494 850 
L 3494 0 
L 2356 0 
L 2356 850 
L 288 850 
L 288 1881 
L 2156 4666 
z
" transform="scale(0.015625)"/>
      <path id="DejaVuSans-Bold-37" d="M 428 4666 
L 3944 4666 
L 3944 3988 
L 2125 0 
L 953 0 
L 2675 3781 
L 428 3781 
L 428 4666 
z
" transform="scale(0.015625)"/>
      <path id="DejaVuSans-Bold-31" d="M 750 831 
L 1813 831 
L 1813 3847 
L 722 3622 
L 722 4441 
L 1806 4666 
L 2950 4666 
L 2950 831 
L 4013 831 
L 4013 0 
L 750 0 
L 750 831 
z
" transform="scale(0.015625)"/>
      <path id="DejaVuSans-Bold-2c" d="M 653 1209 
L 1778 1209 
L 1778 256 
L 1006 -909 
L 341 -909 
L 653 256 
L 653 1209 
z
" transform="scale(0.015625)"/>
      <path id="DejaVuSans-Bold-4d" d="M 588 4666 
L 2119 4666 
L 3181 2169 
L 4250 4666 
L 5778 4666 
L 5778 0 
L 4641 0 
L 4641 3413 
L 3566 897 
L 2803 897 
L 1728 3413 
L 1728 0 
L 588 0 
L 588 4666 
z
" transform="scale(0.015625)"/>
      <path id="DejaVuSans-Bold-39" d="M 641 103 
L 641 966 
Q 928 831 1190 764 
Q 1453 697 1709 697 
Q 2247 697 2547 995 
Q 2847 1294 2900 1881 
Q 2688 1725 2447 1647 
Q 2206 1569 1925 1569 
Q 1209 1569 770 1986 
Q 331 2403 331 3084 
Q 331 3838 820 4291 
Q 1309 4744 2131 4744 
Q 3044 4744 3544 4128 
Q 4044 3513 4044 2388 
Q 4044 1231 3459 570 
Q 2875 -91 1856 -91 
Q 1528 -91 1228 -42 
Q 928 6 641 103 
z
M 2125 2350 
Q 2441 2350 2600 2554 
Q 2759 2759 2759 3169 
Q 2759 3575 2600 3781 
Q 2441 3988 2125 3988 
Q 1809 3988 1650 3781 
Q 1491 3575 1491 3169 
Q 1491 2759 1650 2554 
Q 1809 2350 2125 2350 
z
" transform="scale(0.015625)"/>
      <path id="DejaVuSans-Bold-38" d="M 2228 2088 
Q 1891 2088 1709 1903 
Q 1528 1719 1528 1375 
Q 1528 1031 1709 848 
Q 1891 666 2228 666 
Q 2563 666 2741 848 
Q 2919 1031 2919 1375 
Q 2919 1722 2741 1905 
Q 2563 2088 2228 2088 
z
M 1350 2484 
Q 925 2613 709 2878 
Q 494 3144 494 3541 
Q 494 4131 934 4440 
Q 1375 4750 2228 4750 
Q 3075 4750 3515 4442 
Q 3956 4134 3956 3541 
Q 3956 3144 3739 2878 
Q 3522 2613 3097 2484 
Q 3572 2353 3814 2058 
Q 4056 1763 4056 1313 
Q 4056 619 3595 264 
Q 3134 -91 2228 -91 
Q 1319 -91 855 264 
Q 391 619 391 1313 
Q 391 1763 633 2058 
Q 875 2353 1350 2484 
z
M 1631 3419 
Q 1631 3141 1786 2991 
Q 1941 2841 2228 2841 
Q 2509 2841 2662 2991 
Q 2816 3141 2816 3419 
Q 2816 3697 2662 3845 
Q 2509 3994 2228 3994 
Q 1941 3994 1786 3844 
Q 1631 3694 1631 3419 
z
" transform="scale(0.015625)"/>
      <path id="DejaVuSans-Bold-35" d="M 678 4666 
L 3669 4666 
L 3669 3781 
L 1638 3781 
L 1638 3059 
Q 1775 3097 1914 3117 
Q 2053 3138 2203 3138 
Q 3056 3138 3531 2711 
Q 4006 2284 4006 1522 
Q 4006 766 3489 337 
Q 2972 -91 2053 -91 
Q 1656 -91 1267 -14 
Q 878 63 494 219 
L 494 1166 
Q 875 947 1217 837 
Q 1559 728 1863 728 
Q 2300 728 2551 942 
Q 2803 1156 2803 1522 
Q 2803 1891 2551 2103 
Q 2300 2316 1863 2316 
Q 1603 2316 1309 2248 
Q 1016 2181 678 2041 
L 678 4666 
z
" transform="scale(0.015625)"/>
      <path id="DejaVuSans-Bold-2e" d="M 653 1209 
L 1778 1209 
L 1778 0 
L 653 0 
L 653 1209 
z
" transform="scale(0.015625)"/>
      <path id="DejaVuSans-Bold-32" d="M 1844 884 
L 3897 884 
L 3897 0 
L 506 0 
L 506 884 
L 2209 2388 
Q 2438 2594 2547 2791 
Q 2656 2988 2656 3200 
Q 2656 3528 2436 3728 
Q 2216 3928 1850 3928 
Q 1569 3928 1234 3808 
Q 900 3688 519 3450 
L 519 4475 
Q 925 4609 1322 4679 
Q 1719 4750 2100 4750 
Q 2938 4750 3402 4381 
Q 3866 4013 3866 3353 
Q 3866 2972 3669 2642 
Q 3472 2313 2841 1759 
L 1844 884 
z
" transform="scale(0.015625)"/>
      <path id="DejaVuSans-Bold-b1" d="M 3053 4013 
L 3053 2906 
L 4684 2906 
L 4684 2169 
L 3053 2169 
L 3053 1063 
L 2309 1063 
L 2309 2169 
L 678 2169 
L 678 2906 
L 2309 2906 
L 2309 4013 
L 3053 4013 
z
M 678 744 
L 4684 744 
L 4684 0 
L 678 0 
L 678 744 
z
" transform="scale(0.015625)"/>
      <path id="DejaVuSans-Bold-36" d="M 2316 2303 
Q 2000 2303 1842 2098 
Q 1684 1894 1684 1484 
Q 1684 1075 1842 870 
Q 2000 666 2316 666 
Q 2634 666 2792 870 
Q 2950 1075 2950 1484 
Q 2950 1894 2792 2098 
Q 2634 2303 2316 2303 
z
M 3803 4544 
L 3803 3681 
Q 3506 3822 3243 3889 
Q 2981 3956 2731 3956 
Q 2194 3956 1894 3657 
Q 1594 3359 1544 2772 
Q 1750 2925 1990 3001 
Q 2231 3078 2516 3078 
Q 3231 3078 3670 2659 
Q 4109 2241 4109 1563 
Q 4109 813 3618 361 
Q 3128 -91 2303 -91 
Q 1394 -91 895 523 
Q 397 1138 397 2266 
Q 397 3422 980 4083 
Q 1563 4744 2578 4744 
Q 2900 4744 3203 4694 
Q 3506 4644 3803 4544 
z
" transform="scale(0.015625)"/>
      <path id="DejaVuSans-Bold-41" d="M 3419 850 
L 1538 850 
L 1241 0 
L 31 0 
L 1759 4666 
L 3194 4666 
L 4922 0 
L 3713 0 
L 3419 850 
z
M 1838 1716 
L 3116 1716 
L 2478 3572 
L 1838 1716 
z
" transform="scale(0.015625)"/>
      <path id="DejaVuSans-Bold-52" d="M 2297 2597 
Q 2675 2597 2839 2737 
Q 3003 2878 3003 3200 
Q 3003 3519 2839 3656 
Q 2675 3794 2297 3794 
L 1791 3794 
L 1791 2597 
L 2297 2597 
z
M 1791 1766 
L 1791 0 
L 588 0 
L 588 4666 
L 2425 4666 
Q 3347 4666 3776 4356 
Q 4206 4047 4206 3378 
Q 4206 2916 3982 2619 
Q 3759 2322 3309 2181 
Q 3556 2125 3751 1926 
Q 3947 1728 4147 1325 
L 4800 0 
L 3519 0 
L 2950 1159 
Q 2778 1509 2601 1637 
Q 2425 1766 2131 1766 
L 1791 1766 
z
" transform="scale(0.015625)"/>
      <path id="DejaVuSans-Bold-67" d="M 2919 594 
Q 2688 288 2409 144 
Q 2131 0 1766 0 
Q 1125 0 706 504 
Q 288 1009 288 1791 
Q 288 2575 706 3076 
Q 1125 3578 1766 3578 
Q 2131 3578 2409 3434 
Q 2688 3291 2919 2981 
L 2919 3500 
L 4044 3500 
L 4044 353 
Q 4044 -491 3511 -936 
Q 2978 -1381 1966 -1381 
Q 1638 -1381 1331 -1331 
Q 1025 -1281 716 -1178 
L 716 -306 
Q 1009 -475 1290 -558 
Q 1572 -641 1856 -641 
Q 2406 -641 2662 -400 
Q 2919 -159 2919 353 
L 2919 594 
z
M 2181 2772 
Q 1834 2772 1640 2515 
Q 1447 2259 1447 1791 
Q 1447 1309 1634 1061 
Q 1822 813 2181 813 
Q 2531 813 2725 1069 
Q 2919 1325 2919 1791 
Q 2919 2259 2725 2515 
Q 2531 2772 2181 2772 
z
" transform="scale(0.015625)"/>
      <path id="DejaVuSans-Bold-5b" d="M 550 4863 
L 2491 4863 
L 2491 4159 
L 1613 4159 
L 1613 -141 
L 2491 -141 
L 2491 -844 
L 550 -844 
L 550 4863 
z
" transform="scale(0.015625)"/>
      <path id="DejaVuSans-Bold-33" d="M 2981 2516 
Q 3453 2394 3698 2092 
Q 3944 1791 3944 1325 
Q 3944 631 3412 270 
Q 2881 -91 1863 -91 
Q 1503 -91 1142 -33 
Q 781 25 428 141 
L 428 1069 
Q 766 900 1098 814 
Q 1431 728 1753 728 
Q 2231 728 2486 893 
Q 2741 1059 2741 1369 
Q 2741 1688 2480 1852 
Q 2219 2016 1709 2016 
L 1228 2016 
L 1228 2791 
L 1734 2791 
Q 2188 2791 2409 2933 
Q 2631 3075 2631 3366 
Q 2631 3634 2415 3781 
Q 2200 3928 1806 3928 
Q 1516 3928 1219 3862 
Q 922 3797 628 3669 
L 628 4550 
Q 984 4650 1334 4700 
Q 1684 4750 2022 4750 
Q 2931 4750 3382 4451 
Q 3834 4153 3834 3553 
Q 3834 3144 3618 2883 
Q 3403 2622 2981 2516 
z
" transform="scale(0.015625)"/>
      <path id="DejaVuSans-Bold-5d" d="M 2375 -844 
L 434 -844 
L 434 -141 
L 1313 -141 
L 1313 4159 
L 434 4159 
L 434 4863 
L 2375 4863 
L 2375 -844 
z
" transform="scale(0.015625)"/>
     </defs>
     <use xlink:href="#DejaVuSans-Bold-54"/>
     <use xlink:href="#DejaVuSans-Bold-6f" x="54.962891"/>
     <use xlink:href="#DejaVuSans-Bold-74" x="123.664062"/>
     <use xlink:href="#DejaVuSans-Bold-61" x="171.466797"/>
     <use xlink:href="#DejaVuSans-Bold-6c" x="238.947266"/>
     <use xlink:href="#DejaVuSans-Bold-20" x="273.224609"/>
     <use xlink:href="#DejaVuSans-Bold-45" x="308.039062"/>
     <use xlink:href="#DejaVuSans-Bold-76" x="376.349609"/>
     <use xlink:href="#DejaVuSans-Bold-65" x="441.535156"/>
     <use xlink:href="#DejaVuSans-Bold-6e" x="509.357422"/>
     <use xlink:href="#DejaVuSans-Bold-74" x="580.548828"/>
     <use xlink:href="#DejaVuSans-Bold-73" x="628.351562"/>
     <use xlink:href="#DejaVuSans-Bold-3a" x="687.873047"/>
     <use xlink:href="#DejaVuSans-Bold-20" x="727.863281"/>
     <use xlink:href="#DejaVuSans-Bold-34" x="762.677734"/>
     <use xlink:href="#DejaVuSans-Bold-34" x="832.257812"/>
     <use xlink:href="#DejaVuSans-Bold-37" x="901.837891"/>
     <use xlink:href="#DejaVuSans-Bold-31" x="971.417969"/>
     <use xlink:href="#DejaVuSans-Bold-2c" x="1040.998047"/>
     <use xlink:href="#DejaVuSans-Bold-20" x="1078.986328"/>
     <use xlink:href="#DejaVuSans-Bold-4d" x="1113.800781"/>
     <use xlink:href="#DejaVuSans-Bold-65" x="1213.3125"/>
     <use xlink:href="#DejaVuSans-Bold-61" x="1281.134766"/>
     <use xlink:href="#DejaVuSans-Bold-6e" x="1348.615234"/>
     <use xlink:href="#DejaVuSans-Bold-3a" x="1419.806641"/>
     <use xlink:href="#DejaVuSans-Bold-20" x="1459.796875"/>
     <use xlink:href="#DejaVuSans-Bold-39" x="1494.611328"/>
     <use xlink:href="#DejaVuSans-Bold-38" x="1564.191406"/>
     <use xlink:href="#DejaVuSans-Bold-35" x="1633.771484"/>
     <use xlink:href="#DejaVuSans-Bold-2e" x="1703.351562"/>
     <use xlink:href="#DejaVuSans-Bold-34" x="1741.339844"/>
     <use xlink:href="#DejaVuSans-Bold-32" x="1810.919922"/>
     <use xlink:href="#DejaVuSans-Bold-20" x="1880.5"/>
     <use xlink:href="#DejaVuSans-Bold-b1" x="1915.314453"/>
     <use xlink:href="#DejaVuSans-Bold-20" x="1999.103516"/>
     <use xlink:href="#DejaVuSans-Bold-32" x="2033.917969"/>
     <use xlink:href="#DejaVuSans-Bold-36" x="2103.498047"/>
     <use xlink:href="#DejaVuSans-Bold-2e" x="2173.078125"/>
     <use xlink:href="#DejaVuSans-Bold-36" x="2211.066406"/>
     <use xlink:href="#DejaVuSans-Bold-32" x="2280.646484"/>
     <use xlink:href="#DejaVuSans-Bold-20" x="2350.226562"/>
     <use xlink:href="#DejaVuSans-Bold-41" x="2385.041016"/>
     <use xlink:href="#DejaVuSans-Bold-44" x="2462.433594"/>
     <use xlink:href="#DejaVuSans-Bold-43" x="2545.441406"/>
     <use xlink:href="#DejaVuSans-Bold-2c" x="2618.830078"/>
     <use xlink:href="#DejaVuSans-Bold-20" x="2656.818359"/>
     <use xlink:href="#DejaVuSans-Bold-52" x="2691.632812"/>
     <use xlink:href="#DejaVuSans-Bold-61" x="2768.634766"/>
     <use xlink:href="#DejaVuSans-Bold-6e" x="2836.115234"/>
     <use xlink:href="#DejaVuSans-Bold-67" x="2907.306641"/>
     <use xlink:href="#DejaVuSans-Bold-65" x="2978.888672"/>
     <use xlink:href="#DejaVuSans-Bold-3a" x="3046.710938"/>
     <use xlink:href="#DejaVuSans-Bold-20" x="3086.701172"/>
     <use xlink:href="#DejaVuSans-Bold-5b" x="3121.515625"/>
     <use xlink:href="#DejaVuSans-Bold-38" x="3167.21875"/>
     <use xlink:href="#DejaVuSans-Bold-39" x="3236.798828"/>
     <use xlink:href="#DejaVuSans-Bold-33" x="3306.378906"/>
     <use xlink:href="#DejaVuSans-Bold-2e" x="3375.958984"/>
     <use xlink:href="#DejaVuSans-Bold-37" x="3413.947266"/>
     <use xlink:href="#DejaVuSans-Bold-35" x="3483.527344"/>
     <use xlink:href="#DejaVuSans-Bold-2c" x="3553.107422"/>
     <use xlink:href="#DejaVuSans-Bold-20" x="3591.095703"/>
     <use xlink:href="#DejaVuSans-Bold-31" x="3625.910156"/>
     <use xlink:href="#DejaVuSans-Bold-33" x="3695.490234"/>
     <use xlink:href="#DejaVuSans-Bold-38" x="3765.070312"/>
     <use xlink:href="#DejaVuSans-Bold-31" x="3834.650391"/>
     <use xlink:href="#DejaVuSans-Bold-2e" x="3904.230469"/>
     <use xlink:href="#DejaVuSans-Bold-30" x="3942.21875"/>
     <use xlink:href="#DejaVuSans-Bold-33" x="4011.798828"/>
     <use xlink:href="#DejaVuSans-Bold-5d" x="4081.378906"/>
     <use xlink:href="#DejaVuSans-Bold-20" x="4127.082031"/>
     <use xlink:href="#DejaVuSans-Bold-41" x="4161.896484"/>
     <use xlink:href="#DejaVuSans-Bold-44" x="4239.289062"/>
     <use xlink:href="#DejaVuSans-Bold-43" x="4322.296875"/>
    </g>
   </g>
   <g id="legend_1">
    <g id="patch_59">
     <path d="M 560.554608 93.890375 
L 695.167108 93.890375 
Q 697.167108 93.890375 697.167108 91.890375 
L 697.167108 48.856 
Q 697.167108 46.856 695.167108 46.856 
L 560.554608 46.856 
Q 558.554608 46.856 558.554608 48.856 
L 558.554608 91.890375 
Q 558.554608 93.890375 560.554608 93.890375 
z
" style="fill: #ffffff; opacity: 0.8; stroke: #cccccc; stroke-linejoin: miter"/>
    </g>
    <g id="line2d_31">
     <path d="M 562.554608 54.954437 
L 572.554608 54.954437 
L 582.554608 54.954437 
" style="fill: none; stroke-dasharray: 7.4,3.2; stroke-dashoffset: 0; stroke: #ff0000; stroke-width: 2"/>
    </g>
    <g id="text_19">
     <!-- Mean: 985.42 ADC -->
     <g transform="translate(590.554608 58.454437)scale(0.1 -0.1)">
      <defs>
       <path id="DejaVuSans-4d" d="M 628 4666 
L 1569 4666 
L 2759 1491 
L 3956 4666 
L 4897 4666 
L 4897 0 
L 4281 0 
L 4281 4097 
L 3078 897 
L 2444 897 
L 1241 4097 
L 1241 0 
L 628 0 
L 628 4666 
z
" transform="scale(0.015625)"/>
       <path id="DejaVuSans-3a" d="M 750 794 
L 1409 794 
L 1409 0 
L 750 0 
L 750 794 
z
M 750 3309 
L 1409 3309 
L 1409 2516 
L 750 2516 
L 750 3309 
z
" transform="scale(0.015625)"/>
       <path id="DejaVuSans-38" d="M 2034 2216 
Q 1584 2216 1326 1975 
Q 1069 1734 1069 1313 
Q 1069 891 1326 650 
Q 1584 409 2034 409 
Q 2484 409 2743 651 
Q 3003 894 3003 1313 
Q 3003 1734 2745 1975 
Q 2488 2216 2034 2216 
z
M 1403 2484 
Q 997 2584 770 2862 
Q 544 3141 544 3541 
Q 544 4100 942 4425 
Q 1341 4750 2034 4750 
Q 2731 4750 3128 4425 
Q 3525 4100 3525 3541 
Q 3525 3141 3298 2862 
Q 3072 2584 2669 2484 
Q 3125 2378 3379 2068 
Q 3634 1759 3634 1313 
Q 3634 634 3220 271 
Q 2806 -91 2034 -91 
Q 1263 -91 848 271 
Q 434 634 434 1313 
Q 434 1759 690 2068 
Q 947 2378 1403 2484 
z
M 1172 3481 
Q 1172 3119 1398 2916 
Q 1625 2713 2034 2713 
Q 2441 2713 2670 2916 
Q 2900 3119 2900 3481 
Q 2900 3844 2670 4047 
Q 2441 4250 2034 4250 
Q 1625 4250 1398 4047 
Q 1172 3844 1172 3481 
z
" transform="scale(0.015625)"/>
       <path id="DejaVuSans-2e" d="M 684 794 
L 1344 794 
L 1344 0 
L 684 0 
L 684 794 
z
" transform="scale(0.015625)"/>
      </defs>
      <use xlink:href="#DejaVuSans-4d"/>
      <use xlink:href="#DejaVuSans-65" x="86.279297"/>
      <use xlink:href="#DejaVuSans-61" x="147.802734"/>
      <use xlink:href="#DejaVuSans-6e" x="209.082031"/>
      <use xlink:href="#DejaVuSans-3a" x="272.460938"/>
      <use xlink:href="#DejaVuSans-20" x="306.152344"/>
      <use xlink:href="#DejaVuSans-39" x="337.939453"/>
      <use xlink:href="#DejaVuSans-38" x="401.5625"/>
      <use xlink:href="#DejaVuSans-35" x="465.185547"/>
      <use xlink:href="#DejaVuSans-2e" x="528.808594"/>
      <use xlink:href="#DejaVuSans-34" x="560.595703"/>
      <use xlink:href="#DejaVuSans-32" x="624.21875"/>
      <use xlink:href="#DejaVuSans-20" x="687.841797"/>
      <use xlink:href="#DejaVuSans-41" x="719.628906"/>
      <use xlink:href="#DejaVuSans-44" x="788.037109"/>
      <use xlink:href="#DejaVuSans-43" x="865.039062"/>
     </g>
    </g>
    <g id="line2d_32">
     <path d="M 562.554608 69.632562 
L 572.554608 69.632562 
L 582.554608 69.632562 
" style="fill: none; stroke-dasharray: 7.4,3.2; stroke-dashoffset: 0; stroke: #008000; stroke-width: 2"/>
    </g>
    <g id="text_20">
     <!-- Median: 985.00 ADC -->
     <g transform="translate(590.554608 73.132562)scale(0.1 -0.1)">
      <defs>
       <path id="DejaVuSans-64" d="M 2906 2969 
L 2906 4863 
L 3481 4863 
L 3481 0 
L 2906 0 
L 2906 525 
Q 2725 213 2448 61 
Q 2172 -91 1784 -91 
Q 1150 -91 751 415 
Q 353 922 353 1747 
Q 353 2572 751 3078 
Q 1150 3584 1784 3584 
Q 2172 3584 2448 3432 
Q 2725 3281 2906 2969 
z
M 947 1747 
Q 947 1113 1208 752 
Q 1469 391 1925 391 
Q 2381 391 2643 752 
Q 2906 1113 2906 1747 
Q 2906 2381 2643 2742 
Q 2381 3103 1925 3103 
Q 1469 3103 1208 2742 
Q 947 2381 947 1747 
z
" transform="scale(0.015625)"/>
      </defs>
      <use xlink:href="#DejaVuSans-4d"/>
      <use xlink:href="#DejaVuSans-65" x="86.279297"/>
      <use xlink:href="#DejaVuSans-64" x="147.802734"/>
      <use xlink:href="#DejaVuSans-69" x="211.279297"/>
      <use xlink:href="#DejaVuSans-61" x="239.0625"/>
      <use xlink:href="#DejaVuSans-6e" x="300.341797"/>
      <use xlink:href="#DejaVuSans-3a" x="363.720703"/>
      <use xlink:href="#DejaVuSans-20" x="397.412109"/>
      <use xlink:href="#DejaVuSans-39" x="429.199219"/>
      <use xlink:href="#DejaVuSans-38" x="492.822266"/>
      <use xlink:href="#DejaVuSans-35" x="556.445312"/>
      <use xlink:href="#DejaVuSans-2e" x="620.068359"/>
      <use xlink:href="#DejaVuSans-30" x="651.855469"/>
      <use xlink:href="#DejaVuSans-30" x="715.478516"/>
      <use xlink:href="#DejaVuSans-20" x="779.101562"/>
      <use xlink:href="#DejaVuSans-41" x="810.888672"/>
      <use xlink:href="#DejaVuSans-44" x="879.296875"/>
      <use xlink:href="#DejaVuSans-43" x="956.298828"/>
     </g>
    </g>
    <g id="patch_60">
     <path d="M 562.554608 87.810687 
L 582.554608 87.810687 
L 582.554608 80.810687 
L 562.554608 80.810687 
z
" style="fill: #ff0000; opacity: 0.2; stroke: #ff0000; stroke-linejoin: miter"/>
    </g>
    <g id="text_21">
     <!-- 3: 26.62 ADC -->
     <g transform="translate(590.554608 87.810687)scale(0.1 -0.1)">
      <defs>
       <path id="DejaVuSans-b1" d="M 2944 4013 
L 2944 2803 
L 4684 2803 
L 4684 2272 
L 2944 2272 
L 2944 1063 
L 2419 1063 
L 2419 2272 
L 678 2272 
L 678 2803 
L 2419 2803 
L 2419 4013 
L 2944 4013 
z
M 678 531 
L 4684 531 
L 4684 0 
L 678 0 
L 678 531 
z
" transform="scale(0.015625)"/>
       <path id="DejaVuSans-3c3" d="M 1959 3044 
Q 1484 3044 1228 2700 
Q 959 2341 959 1747 
Q 959 1119 1226 758 
Q 1494 397 1959 397 
Q 2419 397 2687 759 
Q 2956 1122 2956 1747 
Q 2956 2319 2688 2700 
Q 2441 3044 1959 3044 
z
M 1959 3500 
L 3869 3500 
L 3869 2925 
L 3225 2925 
Q 3566 2438 3566 1747 
Q 3566 888 3138 400 
Q 2709 -91 1959 -91 
Q 1206 -91 781 400 
Q 353 888 353 1747 
Q 353 2613 781 3097 
Q 1134 3500 1959 3500 
z
" transform="scale(0.015625)"/>
      </defs>
      <use xlink:href="#DejaVuSans-b1"/>
      <use xlink:href="#DejaVuSans-33" x="83.789062"/>
      <use xlink:href="#DejaVuSans-3c3" x="147.412109"/>
      <use xlink:href="#DejaVuSans-3a" x="210.791016"/>
      <use xlink:href="#DejaVuSans-20" x="244.482422"/>
      <use xlink:href="#DejaVuSans-32" x="276.269531"/>
      <use xlink:href="#DejaVuSans-36" x="339.892578"/>
      <use xlink:href="#DejaVuSans-2e" x="403.515625"/>
      <use xlink:href="#DejaVuSans-36" x="435.302734"/>
      <use xlink:href="#DejaVuSans-32" x="498.925781"/>
      <use xlink:href="#DejaVuSans-20" x="562.548828"/>
      <use xlink:href="#DejaVuSans-41" x="594.335938"/>
      <use xlink:href="#DejaVuSans-44" x="662.744141"/>
      <use xlink:href="#DejaVuSans-43" x="739.746094"/>
     </g>
    </g>
   </g>
  </g>
 </g>
 <defs>
  <clipPath id="p901f4448af">
   <rect x="53.75" y="41.856" width="648.417108" height="345.304"/>
  </clipPath>
 </defs>
</svg>
